if (_typeface_js && _typeface_js.loadFace) _typeface_js.loadFace({"glyphs":{"¦":{"x_min":127.78125,"x_max":225,"ha":353,"o":"m 127 222 l 127 -347 l 225 -347 l 225 222 l 127 222 m 225 548 l 225 1041 l 127 1041 l 127 548 l 225 548 "},"₅":{"x_min":57.90625,"x_max":442,"ha":485,"o":"m 442 36 b 272 213 442 150 368 213 b 167 171 210 213 167 171 l 183 332 l 404 332 l 404 409 l 114 409 l 81 111 l 154 104 b 243 143 178 131 211 143 b 344 34 307 143 344 106 b 246 -77 344 -33 307 -77 b 140 20 185 -77 140 -42 l 57 13 b 246 -153 57 -99 146 -153 b 442 36 355 -153 442 -83 "},"Ž":{"x_min":55.5625,"x_max":702.78125,"ha":772,"o":"m 55 868 l 533 868 l 55 58 b 69 0 62 25 69 0 l 702 0 l 702 104 l 212 104 l 690 913 b 676 972 683 955 676 972 l 55 972 l 55 868 m 413 1041 l 562 1222 l 459 1222 l 377 1113 l 293 1222 l 190 1222 l 340 1041 l 413 1041 "},"Á":{"x_min":20.828125,"x_max":819.453125,"ha":840,"o":"m 687 0 l 819 0 l 479 972 l 340 972 l 351 936 l 20 0 l 145 0 l 234 263 l 600 263 l 687 0 m 386 719 l 418 831 l 450 722 l 566 368 l 269 368 l 386 719 m 513 1222 l 386 1041 l 487 1041 l 638 1222 l 513 1222 "},"Î":{"x_min":0,"x_max":376.390625,"ha":375,"o":"m 250 972 l 125 972 l 125 0 l 250 0 l 250 972 m 159 1222 l 0 1041 l 100 1041 l 186 1137 l 270 1041 l 376 1041 l 219 1222 l 159 1222 "},"e":{"x_min":80.25,"x_max":583.71875,"ha":656,"o":"m 461 338 b 583 465 564 361 583 373 b 347 694 583 602 494 694 b 82 436 179 694 89 579 b 82 229 79 370 79 327 b 347 -20 86 80 183 -20 b 582 194 501 -20 587 84 l 485 201 b 347 76 475 131 433 76 b 199 250 258 76 199 136 l 199 294 b 461 338 199 294 357 316 m 199 413 b 347 597 199 520 243 597 b 465 468 422 597 465 547 b 394 404 465 430 455 418 b 199 370 299 383 199 370 l 199 413 "},"»":{"x_min":30.5625,"x_max":627.78125,"ha":686,"o":"m 495 341 l 495 332 l 316 165 l 372 96 l 627 332 l 627 341 l 376 589 l 315 520 l 495 341 m 211 341 l 211 332 l 31 165 l 87 96 l 343 332 l 343 341 l 91 589 l 30 520 l 211 341 "},"∆":{"x_min":34.71875,"x_max":887.5,"ha":922,"o":"m 887 56 l 515 972 l 409 972 l 34 56 l 55 0 l 869 0 l 887 56 m 459 823 l 751 97 l 162 97 l 459 823 "},"ò":{"x_min":79.875,"x_max":620.828125,"ha":701,"o":"m 617 229 b 617 447 621 327 621 361 b 351 694 610 594 506 694 b 82 447 194 694 89 594 b 82 229 78 361 78 336 b 351 -20 88 80 198 -20 b 617 229 503 -20 610 80 m 499 444 b 499 231 502 358 502 305 b 351 76 495 143 438 76 b 201 233 262 76 205 143 b 201 444 198 304 198 358 b 351 597 203 536 262 597 b 499 444 439 597 496 534 m 112 972 l 294 770 l 403 770 l 251 972 l 112 972 "},"ﬄ":{"x_min":23.609375,"x_max":1140.28125,"ha":1185,"o":"m 648 773 b 795 944 651 882 697 944 b 931 905 890 944 931 905 l 931 132 b 1140 0 931 -6 1047 -27 l 1140 83 b 1050 173 1075 83 1050 104 l 1050 1042 l 934 994 b 779 1042 905 1017 851 1042 b 530 773 652 1042 530 954 l 530 673 l 238 673 l 238 773 b 366 944 238 903 286 944 b 475 918 422 944 475 918 l 493 1000 b 344 1042 466 1021 415 1042 b 120 780 225 1042 120 961 l 120 673 l 23 673 l 23 590 l 120 590 l 120 0 l 238 0 l 238 590 l 530 590 l 530 0 l 648 0 l 648 590 l 815 590 l 815 673 l 648 673 l 648 773 "},"^":{"x_min":65.28125,"x_max":630.5625,"ha":696,"o":"m 309 972 l 65 631 l 173 631 l 345 872 l 519 631 l 630 631 l 383 972 l 309 972 "},"«":{"x_min":58.328125,"x_max":655.5625,"ha":686,"o":"m 468 345 l 468 353 l 654 519 l 598 590 l 338 353 l 338 344 l 594 97 l 655 166 l 468 345 m 187 345 l 187 353 l 373 519 l 318 590 l 58 353 l 58 344 l 313 97 l 375 166 l 187 345 "},"ⁿ":{"x_min":30.5625,"x_max":452.78125,"ha":504,"o":"m 175 832 b 279 916 175 866 216 916 b 362 823 331 916 362 890 l 362 541 l 452 541 l 452 833 b 304 986 452 928 395 986 b 172 919 247 986 204 961 b 30 972 155 978 83 989 l 30 910 b 84 868 59 910 84 903 l 84 541 l 175 541 l 175 832 "},"í":{"x_min":93,"x_max":391.609375,"ha":339,"o":"m 211 688 l 93 639 l 93 133 b 301 0 93 -5 201 -27 l 301 83 b 211 175 236 83 211 106 l 211 688 m 252 972 l 99 771 l 208 771 l 391 972 l 252 972 "},"ˆ":{"x_min":120.828125,"x_max":530.5625,"ha":660,"o":"m 288 972 l 120 763 l 229 763 l 325 880 l 419 763 l 530 763 l 362 972 l 288 972 "},"µ":{"x_min":86.109375,"x_max":686.109375,"ha":724,"o":"m 477 221 b 330 76 477 160 429 76 b 204 217 251 76 204 114 l 204 688 l 86 639 l 86 -347 l 204 -298 l 204 4 b 298 -20 226 -12 263 -20 b 484 83 390 -20 448 22 b 686 0 516 -23 650 -16 l 686 83 b 595 161 626 83 595 90 l 595 688 l 477 639 l 477 221 "},"’":{"x_min":-3.515625,"x_max":246.484375,"ha":297,"o":"m 29 626 b 246 880 154 648 246 756 b 147 992 246 952 206 992 b 60 906 104 992 60 959 b 150 820 60 834 118 816 b -3 676 150 820 143 717 l 29 626 "},"-":{"x_min":51.390625,"x_max":419.4375,"ha":471,"o":"m 51 312 l 419 312 l 419 416 l 51 416 l 51 312 "},"Q":{"x_min":90.28125,"x_max":868.0625,"ha":861,"o":"m 590 -133 b 793 -200 666 -169 731 -200 b 868 -168 844 -200 868 -168 l 868 -98 b 836 -100 859 -100 844 -100 b 647 -55 791 -100 751 -86 b 500 -15 581 -36 541 -20 b 766 300 656 11 758 129 b 766 676 772 427 772 555 b 430 993 758 869 627 993 b 94 676 234 993 102 869 b 94 300 88 555 88 427 b 347 -12 101 134 198 18 b 590 -133 398 -30 468 -75 m 430 83 b 219 301 304 83 223 165 b 219 673 215 436 216 566 b 430 888 223 809 304 888 b 641 673 556 888 637 809 b 641 301 644 566 645 436 b 430 83 637 165 556 83 "},"③":{"x_min":65.28125,"x_max":1002.78125,"ha":1068,"o":"m 65 458 b 534 -20 65 204 272 -20 b 1002 458 795 -20 1002 204 b 534 937 1002 712 795 937 b 65 458 272 937 65 712 m 636 366 b 533 465 636 434 586 465 b 487 458 518 465 501 463 l 470 505 l 612 673 l 358 673 l 358 750 l 715 750 l 722 684 l 570 518 b 733 369 644 522 733 479 b 538 187 733 252 647 187 b 345 354 418 187 344 262 l 429 361 b 538 263 431 300 475 263 b 636 366 598 263 636 302 "},"M":{"x_min":125,"x_max":959.71875,"ha":1085,"o":"m 552 251 l 794 666 l 837 780 l 840 780 l 834 673 l 834 0 l 959 0 l 959 972 l 838 972 l 572 497 l 534 408 l 498 497 l 251 972 l 125 972 l 125 0 l 243 0 l 243 672 l 234 780 l 237 780 l 284 666 l 505 251 l 552 251 "},"œ":{"x_min":80.984375,"x_max":1007.71875,"ha":1079,"o":"m 885 338 b 1007 465 988 361 1007 373 b 771 694 1007 602 918 694 b 563 601 677 694 607 658 b 352 694 517 659 443 694 b 84 447 195 694 91 594 b 84 229 79 361 79 336 b 352 -20 89 80 199 -20 b 559 69 439 -20 511 12 b 771 -20 604 12 677 -20 b 1006 194 925 -20 1011 84 l 909 201 b 771 76 899 131 857 76 b 623 250 682 76 623 136 l 623 294 b 885 338 623 294 781 316 m 500 444 b 500 231 503 358 503 305 b 352 76 496 143 439 76 b 202 233 263 76 206 143 b 202 444 199 304 199 358 b 352 597 204 536 263 597 b 500 444 441 597 498 534 m 623 413 b 771 597 623 520 667 597 b 889 468 846 597 889 547 b 818 404 889 430 879 418 b 623 370 723 383 623 370 l 623 413 "},"₍":{"x_min":79.171875,"x_max":287.5,"ha":354,"o":"m 79 131 b 227 -306 79 -65 166 -237 l 287 -275 b 169 131 237 -190 169 -37 b 287 536 169 302 237 451 l 227 567 b 79 131 173 497 79 330 "},"{":{"x_min":106.9375,"x_max":436.109375,"ha":501,"o":"m 220 601 b 106 456 220 512 170 476 l 106 387 b 220 259 163 375 220 348 l 220 -44 b 436 -184 220 -162 336 -212 l 436 -108 b 318 -37 384 -115 318 -106 l 318 259 b 184 425 318 356 277 409 b 318 601 277 437 318 525 l 318 886 b 436 956 318 955 384 963 l 436 1033 b 220 893 336 1061 220 1011 l 220 601 "},"¼":{"x_min":100.40625,"x_max":1097.640625,"ha":1197,"o":"m 303 972 l 260 979 l 100 944 l 108 880 l 205 888 l 205 501 l 100 494 l 100 423 l 405 423 l 405 494 l 303 501 l 303 972 m 911 129 l 911 0 l 1001 0 l 1001 129 l 1097 129 l 1097 205 l 1001 205 l 1001 548 l 900 555 l 646 185 l 660 129 l 911 129 m 743 205 l 911 455 l 911 205 l 743 205 m 1003 972 l 899 972 l 217 0 l 322 0 l 1003 972 "},"#":{"x_min":30.5625,"x_max":775,"ha":806,"o":"m 458 0 l 543 0 l 568 254 l 748 254 l 754 327 l 576 327 l 594 522 l 770 522 l 775 595 l 600 595 l 625 833 l 540 833 l 515 595 l 327 595 l 354 833 l 268 833 l 243 595 l 56 595 l 52 522 l 236 522 l 216 327 l 36 327 l 30 254 l 209 254 l 184 0 l 269 0 l 295 254 l 483 254 l 458 0 m 322 522 l 508 522 l 490 327 l 302 327 l 322 522 "},"Ĳ":{"x_min":125,"x_max":696.296875,"ha":821,"o":"m 569 972 b 569 48 569 972 572 158 b 415 -132 565 -73 513 -132 b 250 48 320 -132 254 -58 l 125 48 b 415 -236 129 -121 247 -236 b 694 48 575 -236 688 -137 b 694 972 698 184 694 972 l 569 972 m 250 972 l 125 972 l 125 159 l 250 159 l 250 972 "},"Ê":{"x_min":125,"x_max":652.78125,"ha":722,"o":"m 125 0 l 652 0 l 652 104 l 250 104 l 250 444 l 612 444 l 612 548 l 250 548 l 250 868 l 652 868 l 652 972 l 125 972 l 125 0 m 366 1222 l 206 1041 l 306 1041 l 393 1137 l 477 1041 l 583 1041 l 426 1222 l 366 1222 "},")":{"x_min":94.4375,"x_max":391.671875,"ha":483,"o":"m 169 -211 b 391 408 311 -40 391 187 b 169 1044 391 621 315 855 l 94 999 b 287 410 205 852 287 637 b 95 -159 287 187 205 -13 l 169 -211 "},"↗":{"x_min":51.390625,"x_max":756.953125,"ha":801,"o":"m 662 225 l 756 225 l 756 773 l 745 785 l 236 785 l 237 698 l 618 698 l 568 661 l 51 103 l 122 35 l 623 580 l 662 639 l 662 225 "},"Å":{"x_min":20.828125,"x_max":819.453125,"ha":840,"o":"m 687 0 l 819 0 l 479 972 l 340 972 l 351 936 l 20 0 l 145 0 l 234 263 l 600 263 l 687 0 m 386 719 l 418 831 l 450 722 l 566 368 l 269 368 l 386 719 m 293 1145 b 416 1020 293 1072 351 1020 b 540 1145 481 1020 541 1072 b 416 1268 538 1220 476 1268 b 293 1145 355 1268 293 1222 m 361 1147 b 416 1205 361 1181 387 1205 b 472 1147 448 1205 472 1177 b 416 1083 472 1109 448 1083 b 361 1147 387 1083 361 1106 "},"₈":{"x_min":72.5,"x_max":461.40625,"ha":533,"o":"m 266 180 b 180 261 210 180 180 215 b 266 347 180 305 210 347 b 353 261 323 347 353 305 b 266 180 353 215 323 180 m 266 -76 b 169 15 201 -76 169 -34 b 266 104 169 65 201 104 b 364 15 332 104 364 65 b 266 -76 364 -34 332 -76 m 266 -152 b 461 15 393 -152 461 -70 b 351 145 461 77 421 126 b 450 275 412 168 450 218 b 266 423 450 345 387 423 b 83 275 146 423 83 345 b 182 145 83 218 121 168 b 72 15 112 126 72 77 b 266 -152 72 -70 140 -152 "},"¸":{"x_min":125.640625,"x_max":383.328125,"ha":506,"o":"m 126 -193 b 254 -319 118 -270 180 -319 b 383 -193 334 -319 383 -259 b 245 -66 383 -113 326 -59 l 245 -143 b 300 -193 279 -143 300 -159 b 254 -243 300 -227 277 -243 b 202 -193 223 -243 202 -225 l 126 -193 "},"a":{"x_min":72,"x_max":644.34375,"ha":682,"o":"m 644 83 b 554 159 584 83 554 90 l 554 455 b 330 694 554 616 470 694 b 94 470 195 694 78 609 l 198 479 b 323 597 198 551 244 597 b 436 448 409 597 436 543 l 436 381 b 210 326 438 383 297 351 b 72 172 106 295 72 265 b 262 -20 72 52 158 -20 b 447 83 354 -20 409 20 l 451 83 b 644 0 473 -40 615 -16 l 644 83 m 258 266 b 436 313 317 286 436 313 l 436 225 b 304 69 436 138 384 69 b 190 186 237 69 190 112 b 258 266 190 227 203 248 "},"=":{"x_min":65.28125,"x_max":683.328125,"ha":749,"o":"m 65 462 l 683 462 l 683 566 l 65 566 l 65 462 m 65 170 l 683 170 l 683 275 l 65 275 l 65 170 "},"˚":{"x_min":112.5,"x_max":387.5,"ha":501,"o":"m 112 905 b 250 766 112 823 177 766 b 387 905 322 766 387 823 b 250 1041 387 988 316 1041 b 112 905 181 1041 112 990 m 188 906 b 250 972 188 945 218 972 b 311 906 286 972 311 941 b 250 836 311 865 286 836 b 188 906 218 836 188 862 "},"ú":{"x_min":86.109375,"x_max":686.109375,"ha":724,"o":"m 595 688 l 477 639 l 477 207 b 330 76 477 146 429 76 b 204 228 251 76 204 125 l 204 688 l 86 639 l 86 206 b 298 -20 86 57 175 -20 b 488 83 398 -20 456 26 l 491 83 b 686 0 520 -32 650 -16 l 686 83 b 595 160 626 83 595 90 l 595 688 m 436 972 l 283 771 l 391 771 l 575 972 l 436 972 "},"¯":{"x_min":100,"x_max":477.78125,"ha":578,"o":"m 100 875 l 477 875 l 477 972 l 100 972 l 100 875 "},"Z":{"x_min":55.5625,"x_max":702.78125,"ha":772,"o":"m 55 868 l 533 868 l 55 58 b 69 0 62 25 69 0 l 702 0 l 702 104 l 212 104 l 690 913 b 676 972 683 955 676 972 l 55 972 l 55 868 "},"⁸":{"x_min":72.21875,"x_max":461.109375,"ha":533,"o":"m 266 861 b 180 941 209 861 180 895 b 266 1027 180 986 209 1027 b 352 941 323 1027 352 986 b 266 861 352 895 323 861 m 266 604 b 169 695 201 604 169 645 b 266 784 169 745 201 784 b 363 695 331 784 363 745 b 266 604 363 645 331 604 m 266 527 b 461 695 393 527 461 609 b 351 826 461 758 420 806 b 450 955 412 848 450 898 b 266 1104 450 1026 387 1104 b 83 955 145 1104 83 1026 b 181 826 83 898 120 848 b 72 695 112 806 72 758 b 266 527 72 609 140 527 "},"u":{"x_min":86.109375,"x_max":686.109375,"ha":724,"o":"m 595 688 l 477 639 l 477 207 b 330 76 477 146 429 76 b 204 228 251 76 204 125 l 204 688 l 86 639 l 86 206 b 298 -20 86 57 175 -20 b 488 83 398 -20 456 26 l 491 83 b 686 0 520 -32 650 -16 l 686 83 b 595 160 626 83 595 90 l 595 688 "},"k":{"x_min":113.890625,"x_max":658.328125,"ha":682,"o":"m 231 1042 l 113 994 l 113 0 l 231 0 l 231 1042 m 445 92 b 595 -10 498 19 533 -10 b 658 0 638 -10 658 0 l 658 83 b 554 137 604 83 586 96 b 383 394 518 185 383 394 b 520 551 383 394 479 510 b 622 590 555 586 581 593 l 622 667 b 561 680 604 675 583 680 b 459 633 525 680 487 664 l 252 394 l 252 390 b 445 92 266 368 380 180 "},"Ù":{"x_min":118.828125,"x_max":777,"ha":896,"o":"m 448 -21 b 776 308 638 -21 775 97 b 776 972 777 466 776 972 l 651 972 b 651 308 651 972 652 431 b 448 83 650 163 575 83 b 244 308 322 83 245 163 b 244 972 243 431 244 972 l 119 972 b 119 308 119 972 118 466 b 448 -21 120 97 258 -21 m 259 1222 l 416 1041 l 523 1041 l 384 1222 l 259 1222 "},"⅝":{"x_min":99.90625,"x_max":1183.234375,"ha":1283,"o":"m 484 599 b 315 776 484 713 411 776 b 209 734 252 776 209 734 l 226 895 l 447 895 l 447 972 l 156 972 l 123 674 l 197 667 b 286 706 220 694 254 706 b 387 597 349 706 387 669 b 288 485 387 529 349 485 b 183 583 227 485 183 520 l 99 576 b 288 409 99 463 188 409 b 484 599 398 409 484 479 m 988 319 b 902 399 931 319 902 354 b 988 485 902 444 931 485 b 1074 399 1045 485 1074 444 b 988 319 1074 354 1045 319 m 988 62 b 891 154 923 62 891 104 b 988 242 891 204 923 242 b 1086 154 1054 242 1086 204 b 988 62 1086 104 1054 62 m 988 -14 b 1183 154 1115 -14 1183 67 b 1073 284 1183 216 1142 265 b 1172 413 1134 306 1172 356 b 988 562 1172 484 1109 562 b 805 413 867 562 805 484 b 904 284 805 356 842 306 b 794 154 834 265 794 216 b 988 -14 794 67 862 -14 m 1026 972 l 922 972 l 240 0 l 345 0 l 1026 972 "},"¢":{"x_min":79.859375,"x_max":579.34375,"ha":625,"o":"m 379 840 l 304 798 l 304 691 b 81 444 177 677 86 592 b 81 221 79 363 79 312 b 304 -18 84 74 176 -4 l 304 -160 l 379 -125 l 379 -19 b 579 194 513 -5 583 91 l 481 201 b 347 76 472 131 430 76 b 200 242 259 76 204 127 b 200 444 197 316 197 358 b 341 596 204 545 261 596 b 475 478 411 596 470 562 l 579 485 b 379 691 581 599 506 678 l 379 840 "},"é":{"x_min":80.25,"x_max":583.71875,"ha":656,"o":"m 461 338 b 583 465 564 361 583 373 b 347 694 583 602 494 694 b 82 436 179 694 89 579 b 82 229 79 370 79 327 b 347 -20 86 80 183 -20 b 582 194 501 -20 587 84 l 485 201 b 347 76 475 131 433 76 b 199 250 258 76 199 136 l 199 294 b 461 338 199 294 357 316 m 199 413 b 347 597 199 520 243 597 b 465 468 422 597 465 547 b 394 404 465 430 455 418 b 199 370 299 383 199 370 l 199 413 m 407 972 l 254 770 l 362 770 l 546 972 l 407 972 "},"↓":{"x_min":37.5,"x_max":786.109375,"ha":824,"o":"m 115 416 l 37 347 l 398 -50 l 413 -50 l 786 347 l 716 416 l 501 179 l 462 111 l 466 922 l 355 922 l 359 111 l 319 181 l 115 416 "},"B":{"x_min":125,"x_max":743.0625,"ha":813,"o":"m 125 0 b 379 -2 125 0 270 -2 b 743 276 620 -2 743 100 b 536 508 743 409 648 483 l 536 509 b 722 738 647 540 722 629 b 391 973 722 913 587 973 b 125 972 276 973 125 972 l 125 0 m 250 452 l 379 452 b 618 270 529 452 618 398 b 377 101 618 127 516 101 b 250 104 308 101 250 104 l 250 452 m 250 868 b 395 869 250 868 329 869 b 597 715 525 869 597 830 b 373 550 597 569 508 550 l 250 550 l 250 868 "},"…":{"x_min":61.109375,"x_max":918.0625,"ha":982,"o":"m 61 68 b 150 -20 61 18 98 -20 b 241 68 202 -20 241 18 b 150 159 241 119 202 159 b 61 68 98 159 61 119 m 405 68 b 494 -20 405 18 443 -20 b 586 68 547 -20 586 18 b 494 159 586 119 547 159 b 405 68 443 159 405 119 m 737 68 b 826 -20 737 18 775 -20 b 918 68 879 -20 918 18 b 826 159 918 119 879 159 b 737 68 775 159 737 119 "},"⑧":{"x_min":65.28125,"x_max":1002.78125,"ha":1068,"o":"m 65 458 b 534 -20 65 204 272 -20 b 1002 458 795 -20 1002 204 b 534 937 1002 712 795 937 b 65 458 272 937 65 712 m 536 520 b 622 601 593 520 622 555 b 536 687 622 645 593 687 b 450 601 479 687 450 645 b 536 520 450 555 479 520 m 536 263 b 633 355 601 263 633 305 b 536 444 633 405 601 444 b 438 355 470 444 438 405 b 536 263 438 305 470 263 m 536 187 b 341 355 409 187 341 269 b 451 486 341 418 381 466 b 352 615 390 508 352 558 b 536 763 352 686 415 763 b 719 615 656 763 719 686 b 620 486 719 558 681 508 b 730 355 690 466 730 418 b 536 187 730 269 662 187 "},"H":{"x_min":125,"x_max":806.953125,"ha":932,"o":"m 806 972 l 681 972 l 681 541 l 250 541 l 250 972 l 125 972 l 125 0 l 250 0 l 250 437 l 681 437 l 681 0 l 806 0 l 806 972 "},"î":{"x_min":-54.171875,"x_max":355.5625,"ha":339,"o":"m 211 688 l 93 639 l 93 133 b 301 0 93 -5 201 -27 l 301 83 b 211 175 236 83 211 106 l 211 688 m 113 972 l -54 764 l 54 764 l 150 881 l 244 764 l 355 764 l 187 972 l 113 972 "},"−":{"x_min":51.390625,"x_max":622.21875,"ha":674,"o":"m 51 312 l 622 312 l 622 416 l 51 416 l 51 312 "},"⅜":{"x_min":101.5,"x_max":1194.59375,"ha":1294,"o":"m 391 588 b 294 486 391 525 354 486 b 184 583 230 486 187 522 l 101 576 b 294 409 100 484 173 409 b 489 591 402 409 489 475 b 326 740 489 701 400 744 l 477 906 l 470 972 l 114 972 l 114 895 l 368 895 l 226 727 l 243 680 b 289 687 257 686 273 687 b 391 588 341 687 391 656 m 1000 319 b 914 400 943 319 914 354 b 1000 486 914 444 943 486 b 1086 400 1057 486 1086 444 b 1000 319 1086 354 1057 319 m 1000 62 b 902 154 934 62 902 104 b 1000 243 902 204 934 243 b 1097 154 1065 243 1097 204 b 1000 62 1097 104 1065 62 m 1000 -13 b 1194 154 1126 -13 1194 68 b 1084 284 1194 216 1154 265 b 1183 413 1145 306 1183 356 b 1000 562 1183 484 1120 562 b 816 413 879 562 816 484 b 915 284 816 356 854 306 b 805 154 845 265 805 216 b 1000 -13 805 68 873 -13 m 1036 972 l 932 972 l 250 0 l 355 0 l 1036 972 "},"≠":{"x_min":65.28125,"x_max":683.328125,"ha":749,"o":"m 65 566 l 65 462 l 368 462 l 280 275 l 65 275 l 65 170 l 230 170 l 143 -20 l 245 -20 l 334 170 l 683 170 l 683 275 l 383 275 l 469 462 l 683 462 l 683 566 l 516 566 l 590 722 l 488 722 l 415 566 l 65 566 "},"¥":{"x_min":9.71875,"x_max":768.0625,"ha":778,"o":"m 113 337 l 326 337 l 326 247 l 113 247 l 113 156 l 326 156 l 326 0 l 451 0 l 451 156 l 676 156 l 676 247 l 451 247 l 451 337 l 676 337 l 676 427 l 452 427 l 768 972 l 633 972 l 393 533 l 145 972 l 9 972 l 325 427 l 113 427 l 113 337 "},"U":{"x_min":118.828125,"x_max":777,"ha":896,"o":"m 448 -21 b 776 308 638 -21 775 97 b 776 972 777 466 776 972 l 651 972 b 651 308 651 972 652 431 b 448 83 650 163 575 83 b 244 308 322 83 245 163 b 244 972 243 431 244 972 l 119 972 b 119 308 119 972 118 466 b 448 -21 120 97 258 -21 "},"Ñ":{"x_min":125,"x_max":812.5,"ha":938,"o":"m 125 972 l 125 0 l 243 0 l 243 790 l 308 643 l 687 0 l 812 0 l 812 972 l 694 972 l 694 187 l 625 341 l 251 972 l 125 972 m 562 1055 b 666 1195 648 1055 675 1113 l 593 1195 b 561 1136 593 1156 583 1136 b 404 1194 534 1136 463 1194 b 301 1055 329 1194 294 1134 l 379 1055 b 413 1109 379 1088 391 1109 b 562 1055 444 1109 506 1055 "},"F":{"x_min":125,"x_max":644.4375,"ha":651,"o":"m 125 0 l 250 0 l 250 416 l 604 416 l 604 520 l 250 520 l 250 868 l 644 868 l 644 972 l 125 972 l 125 0 "},"←":{"x_min":51.390625,"x_max":1030.5625,"ha":1068,"o":"m 531 679 l 463 754 l 51 373 l 51 365 l 463 -12 l 536 64 l 286 284 l 230 321 l 1030 319 l 1030 423 l 231 422 l 288 459 l 531 679 "},"*":{"x_min":40.28125,"x_max":515.28125,"ha":556,"o":"m 40 787 b 216 735 79 776 158 749 b 88 576 179 689 115 610 l 162 526 b 275 698 187 564 243 646 b 391 526 305 646 365 563 l 466 576 l 337 735 b 515 787 397 749 476 776 l 486 870 b 313 801 448 856 369 824 l 327 998 l 230 992 b 240 802 230 951 236 862 l 69 870 l 40 787 "},"†":{"x_min":72.21875,"x_max":663.890625,"ha":736,"o":"m 663 659 l 416 650 l 427 994 l 318 966 l 326 650 l 72 659 l 73 569 l 327 578 l 340 -347 l 402 -347 l 418 577 l 662 569 l 663 659 "},"°":{"x_min":65.28125,"x_max":476.390625,"ha":542,"o":"m 65 794 b 270 595 65 675 151 595 b 476 794 383 595 476 675 b 270 993 476 913 390 993 b 65 794 151 993 65 913 m 170 794 b 270 909 170 869 213 909 b 372 794 329 909 372 869 b 270 680 372 720 329 680 b 170 794 213 680 170 720 "},"å":{"x_min":72,"x_max":644.34375,"ha":682,"o":"m 644 83 b 554 159 584 83 554 90 l 554 455 b 330 694 554 616 470 694 b 94 470 195 694 78 609 l 198 479 b 323 597 198 551 244 597 b 436 448 409 597 436 543 l 436 381 b 210 326 438 383 297 351 b 72 172 106 295 72 265 b 262 -20 72 52 158 -20 b 447 83 354 -20 409 20 l 451 83 b 644 0 473 -40 615 -16 l 644 83 m 176 905 b 313 766 176 823 241 766 b 451 905 385 766 451 823 b 313 1041 451 988 380 1041 b 176 905 245 1041 176 990 m 258 266 b 436 313 317 286 436 313 l 436 225 b 304 69 436 138 384 69 b 190 186 237 69 190 112 b 258 266 190 227 203 248 m 252 906 b 313 972 252 945 281 972 b 374 906 349 972 374 941 b 313 836 374 865 349 836 b 252 906 281 836 252 862 "},"0":{"x_min":80.21875,"x_max":682.28125,"ha":763,"o":"m 381 -20 b 679 262 551 -20 670 83 b 679 493 683 345 683 413 b 381 770 669 669 545 770 b 83 493 218 770 93 669 b 83 262 79 413 79 345 b 381 -20 91 83 212 -20 m 381 83 b 208 261 291 83 212 147 b 208 493 205 341 205 420 b 381 666 212 612 291 666 b 554 493 472 666 550 612 b 554 261 556 420 556 341 b 381 83 550 147 472 83 "},"”":{"x_min":-3.703125,"x_max":474.15625,"ha":525,"o":"m 257 626 b 474 880 382 648 474 756 b 375 992 474 952 433 992 b 288 906 332 992 288 959 b 378 820 288 834 346 816 b 224 676 378 820 371 717 l 257 626 m 29 626 b 246 880 154 648 246 756 b 147 992 246 952 206 992 b 60 906 104 992 60 959 b 150 820 60 834 118 816 b -3 676 150 820 143 717 l 29 626 "},"ö":{"x_min":80.21875,"x_max":621.171875,"ha":701,"o":"m 618 229 b 618 447 622 327 622 361 b 351 694 611 594 506 694 b 83 447 194 694 90 594 b 83 229 79 361 79 336 b 351 -20 88 80 198 -20 b 618 229 504 -20 611 80 m 500 444 b 500 231 502 358 502 305 b 351 76 495 143 438 76 b 201 233 262 76 205 143 b 201 444 198 304 198 358 b 351 597 204 536 262 597 b 500 444 440 597 497 534 m 147 894 b 223 818 147 850 180 818 b 302 894 269 818 302 850 b 223 972 302 938 269 972 b 147 894 180 972 147 938 m 397 894 b 472 818 397 850 429 818 b 552 894 518 818 552 850 b 472 972 552 938 518 972 b 397 894 429 972 397 938 "},"Õ":{"x_min":90.28125,"x_max":770.828125,"ha":861,"o":"m 511 1054 b 615 1194 597 1054 623 1112 l 541 1194 b 509 1134 541 1155 531 1134 b 352 1193 483 1134 412 1193 b 250 1054 277 1193 243 1133 l 327 1054 b 362 1108 327 1087 340 1108 b 511 1054 393 1108 455 1054 m 430 83 b 219 301 304 83 223 165 b 219 673 215 436 216 566 b 430 888 223 809 304 888 b 641 673 556 888 637 809 b 641 301 644 566 645 436 b 430 83 637 165 556 83 m 430 -20 b 766 300 626 -20 758 105 b 766 676 772 427 772 555 b 430 993 758 869 627 993 b 94 676 234 993 102 869 b 94 300 88 555 88 427 b 430 -20 102 105 234 -20 "},"№":{"x_min":127.78125,"x_max":1360.40625,"ha":1489,"o":"m 973 243 l 1350 243 l 1350 333 l 973 333 l 973 243 m 973 0 l 1350 0 l 1350 90 l 973 90 l 973 0 m 1161 472 b 1358 641 1281 472 1352 534 b 1358 769 1361 690 1361 731 b 1161 937 1351 872 1270 937 b 963 769 1051 937 970 872 b 963 641 961 731 961 690 b 1161 472 969 534 1040 472 m 1161 548 b 1062 643 1101 548 1065 580 b 1062 768 1059 690 1059 725 b 1161 861 1066 826 1102 861 b 1259 768 1219 861 1255 826 b 1259 643 1262 725 1262 690 b 1161 548 1256 580 1220 548 m 127 972 l 127 0 l 245 0 l 245 790 l 311 643 l 690 0 l 815 0 l 815 972 l 697 972 l 697 187 l 627 341 l 254 972 l 127 972 "},"þ":{"x_min":120.828125,"x_max":660.40625,"ha":740,"o":"m 120 993 l 120 -347 l 238 -347 l 238 69 b 426 -20 272 15 344 -20 b 658 230 550 -20 652 65 b 658 458 661 327 661 370 b 433 694 654 604 570 694 b 238 584 340 694 269 644 l 238 1041 l 120 993 m 397 597 b 540 459 490 597 536 551 b 540 225 544 379 544 305 b 405 76 534 126 481 76 b 238 236 318 76 238 115 l 238 459 b 397 597 243 525 306 597 "},"]":{"x_min":87.5,"x_max":320.828125,"ha":413,"o":"m 320 1041 l 87 1041 l 87 958 l 223 958 l 223 -111 l 87 -111 l 87 -194 l 320 -194 l 320 1041 "},"8":{"x_min":86.109375,"x_max":718.0625,"ha":804,"o":"m 402 -20 b 718 259 597 -20 718 100 b 550 494 718 363 650 461 b 695 701 636 534 695 604 b 402 972 695 881 555 972 b 108 701 250 972 108 881 b 254 494 108 604 168 534 b 86 259 154 461 86 363 b 402 -20 86 100 208 -20 m 402 534 b 233 702 293 534 233 611 b 402 868 233 794 295 868 b 570 702 509 868 570 794 b 402 534 570 611 512 534 m 402 83 b 211 259 283 83 211 159 b 402 437 211 356 277 437 b 593 259 527 437 593 356 b 402 83 593 159 522 83 "},"R":{"x_min":125,"x_max":791.671875,"ha":819,"o":"m 372 973 b 125 972 263 973 125 972 l 125 0 l 250 0 l 250 413 l 422 413 l 654 0 l 791 0 l 587 356 b 519 440 541 436 519 440 l 519 443 b 736 701 563 451 736 513 b 372 973 736 912 581 973 m 611 697 b 340 509 611 520 484 509 b 250 511 287 509 250 511 l 250 868 b 373 869 250 868 306 869 b 611 697 536 869 611 809 "},"o":{"x_min":80.21875,"x_max":621.171875,"ha":701,"o":"m 618 229 b 618 447 622 327 622 361 b 351 694 611 594 506 694 b 83 447 194 694 90 594 b 83 229 79 361 79 336 b 351 -20 88 80 198 -20 b 618 229 504 -20 611 80 m 500 444 b 500 231 502 358 502 305 b 351 76 495 143 438 76 b 201 233 262 76 205 143 b 201 444 198 304 198 358 b 351 597 204 536 262 597 b 500 444 440 597 497 534 "},"5":{"x_min":37.5,"x_max":641.671875,"ha":721,"o":"m 211 334 l 250 645 l 595 645 l 595 750 l 145 750 l 91 241 l 193 234 b 341 291 193 234 236 291 b 516 88 444 291 516 241 b 340 -118 516 -51 443 -118 b 148 34 236 -118 163 -63 l 37 27 b 340 -222 44 -125 181 -222 b 641 88 511 -222 641 -102 b 377 388 641 304 508 388 b 211 334 312 388 254 369 "},"õ":{"x_min":79.84375,"x_max":621.140625,"ha":701,"o":"m 618 229 b 618 447 622 327 622 361 b 351 694 611 594 506 694 b 82 447 194 694 89 594 b 82 229 78 361 78 336 b 351 -20 88 80 198 -20 b 618 229 504 -20 611 80 m 499 444 b 499 231 502 358 502 305 b 351 76 495 143 438 76 b 201 233 262 76 205 143 b 201 444 198 304 198 358 b 351 597 203 536 262 597 b 499 444 440 597 497 534 m 438 818 b 555 972 531 818 563 890 l 481 972 b 442 905 481 933 472 905 b 256 970 402 905 323 970 b 141 818 174 970 134 897 l 219 818 b 260 879 219 851 231 879 b 438 818 305 879 376 818 "},"⑨":{"x_min":65.28125,"x_max":1002.78125,"ha":1068,"o":"m 65 458 b 534 -20 65 202 272 -20 b 1002 458 794 -20 1002 202 b 534 937 1002 713 794 937 b 65 458 272 937 65 713 m 729 361 b 537 187 716 251 645 187 b 350 345 427 187 350 254 l 433 352 b 537 263 433 297 480 263 b 638 361 595 263 631 302 b 643 469 643 398 643 433 b 511 395 638 459 606 395 b 344 570 425 395 344 459 b 534 763 344 679 423 763 b 729 579 637 763 718 694 b 729 361 734 516 737 429 m 640 570 b 534 687 640 627 601 687 b 434 577 476 687 434 644 b 531 465 434 511 475 465 b 640 570 593 465 640 515 "},",":{"x_min":-4.171875,"x_max":245.828125,"ha":297,"o":"m 29 -214 b 245 40 154 -191 245 -83 b 147 152 245 112 205 152 b 59 66 104 152 59 119 b 150 -19 59 -5 118 -23 b -4 -164 150 -19 143 -122 l 29 -214 "},"d":{"x_min":80.015625,"x_max":711.109375,"ha":756,"o":"m 620 1042 l 502 993 l 502 590 b 322 694 468 657 401 694 b 81 439 204 694 88 628 b 83 211 79 362 79 292 b 309 -20 91 50 200 -20 b 513 83 411 -20 479 25 l 516 83 b 711 0 545 -33 675 -16 l 711 83 b 620 160 651 83 620 90 l 620 1042 m 502 233 b 341 76 502 115 430 76 b 201 223 256 76 206 123 b 200 432 197 304 200 360 b 341 597 200 537 258 597 b 502 415 434 597 502 536 l 502 233 "},"\"":{"x_min":65.28125,"x_max":379.171875,"ha":444,"o":"m 65 959 b 108 639 79 823 108 639 l 187 639 l 187 1007 l 65 959 m 256 959 l 256 639 l 336 639 b 379 1007 336 639 368 895 l 256 959 "},"˙":{"x_min":100,"x_max":258.328125,"ha":358,"o":"m 100 915 b 177 834 100 868 133 834 b 258 915 225 834 258 868 b 177 993 258 959 225 993 b 100 915 133 993 100 959 "},"ê":{"x_min":80.078125,"x_max":583.015625,"ha":656,"o":"m 461 338 b 583 465 563 361 583 373 b 347 694 583 602 494 694 b 82 436 179 694 89 579 b 82 229 79 370 79 327 b 347 -20 86 80 183 -20 b 581 194 501 -20 587 84 l 484 201 b 347 76 474 131 433 76 b 199 250 258 76 199 136 l 199 294 b 461 338 199 294 357 316 m 199 413 b 347 597 199 520 243 597 b 465 468 422 597 465 547 b 394 404 465 430 455 418 b 199 370 298 383 199 370 l 199 413 m 304 972 l 136 763 l 244 763 l 340 880 l 434 763 l 545 763 l 377 972 l 304 972 "},"„":{"x_min":-3.53125,"x_max":464.59375,"ha":525,"o":"m 247 -214 b 464 40 372 -191 464 -83 b 365 152 464 112 424 152 b 278 66 322 152 278 119 b 368 -19 278 -5 336 -23 b 214 -164 368 -19 361 -122 l 247 -214 m 29 -214 b 246 40 154 -191 246 -83 b 147 152 246 112 206 152 b 60 66 104 152 60 119 b 150 -19 60 -5 118 -23 b -3 -164 150 -19 143 -122 l 29 -214 "},"Â":{"x_min":20.828125,"x_max":819.453125,"ha":840,"o":"m 687 0 l 819 0 l 479 972 l 340 972 l 351 936 l 20 0 l 145 0 l 234 263 l 600 263 l 687 0 m 386 719 l 418 831 l 450 722 l 566 368 l 269 368 l 386 719 m 395 1222 l 236 1041 l 336 1041 l 422 1137 l 506 1041 l 612 1041 l 455 1222 l 395 1222 "},"₎":{"x_min":66.671875,"x_max":275,"ha":354,"o":"m 275 131 b 126 567 275 330 180 497 l 66 536 b 184 131 116 451 184 302 b 66 -275 184 -37 116 -190 l 126 -306 b 275 131 180 -237 275 -65 "},"₄":{"x_min":16.671875,"x_max":468.0625,"ha":499,"o":"m 281 -9 l 281 -138 l 372 -138 l 372 -9 l 468 -9 l 468 66 l 372 66 l 372 409 l 270 416 l 16 47 l 30 -9 l 281 -9 m 113 66 l 281 316 l 281 66 l 113 66 "},"Í":{"x_min":125,"x_max":397.21875,"ha":375,"o":"m 250 972 l 125 972 l 125 0 l 250 0 l 250 972 m 272 1222 l 144 1041 l 245 1041 l 397 1222 l 272 1222 "},"´":{"x_min":169.4375,"x_max":461.109375,"ha":525,"o":"m 322 972 l 169 770 l 277 770 l 461 972 l 322 972 "},"⁾":{"x_min":65.28125,"x_max":273.609375,"ha":353,"o":"m 273 798 b 125 1233 273 996 179 1163 l 65 1202 b 183 798 115 1117 183 969 b 65 391 183 628 115 476 l 125 361 b 273 798 179 429 273 601 "},"Ú":{"x_min":118.828125,"x_max":777,"ha":896,"o":"m 448 -21 b 776 308 638 -21 775 97 b 776 972 777 466 776 972 l 651 972 b 651 308 651 972 652 431 b 448 83 650 163 575 83 b 244 308 322 83 245 163 b 244 972 243 431 244 972 l 119 972 b 119 308 119 972 118 466 b 448 -21 120 97 258 -21 m 525 1222 l 397 1041 l 498 1041 l 650 1222 l 525 1222 "},"Ý":{"x_min":-27.78125,"x_max":730.5625,"ha":710,"o":"m 413 390 l 730 972 l 595 972 l 375 541 l 354 490 l 333 541 l 108 972 l -27 972 l 288 390 l 288 0 l 413 0 l 413 390 m 426 1222 l 298 1041 l 400 1041 l 551 1222 l 426 1222 "},"₁":{"x_min":65.28125,"x_max":370.828125,"ha":408,"o":"m 268 410 l 225 417 l 65 382 l 73 318 l 170 326 l 170 -60 l 65 -67 l 65 -138 l 370 -138 l 370 -67 l 268 -60 l 268 410 "},"Ω":{"x_min":51.390625,"x_max":850,"ha":901,"o":"m 669 97 b 797 322 738 119 790 205 b 797 652 804 443 800 529 b 452 993 791 875 637 993 b 104 652 268 993 111 875 b 104 322 101 531 98 450 b 226 97 109 198 168 112 l 51 97 l 58 0 l 405 0 l 405 97 b 229 323 295 97 234 173 b 229 648 225 451 226 538 b 452 888 231 812 333 888 b 672 648 570 888 668 813 b 672 323 676 515 676 441 b 501 97 666 162 608 100 l 501 0 l 843 0 l 850 97 l 669 97 "},"Ö":{"x_min":90.28125,"x_max":770.828125,"ha":861,"o":"m 229 1115 b 305 1038 229 1070 262 1038 b 384 1115 351 1038 384 1070 b 305 1193 384 1159 351 1193 b 229 1115 262 1193 229 1159 m 479 1115 b 554 1038 479 1070 511 1038 b 634 1115 600 1038 634 1070 b 554 1193 634 1159 600 1193 b 479 1115 511 1193 479 1159 m 430 83 b 219 301 304 83 223 165 b 219 673 215 436 216 566 b 430 888 223 809 304 888 b 641 673 556 888 637 809 b 641 301 644 566 645 436 b 430 83 637 165 556 83 m 430 -20 b 766 300 626 -20 758 105 b 766 676 772 427 772 555 b 430 993 758 869 627 993 b 94 676 234 993 102 869 b 94 300 88 555 88 427 b 430 -20 102 105 234 -20 "},"z":{"x_min":58.328125,"x_max":550,"ha":594,"o":"m 550 97 l 200 97 l 530 604 l 523 673 l 63 673 l 63 576 l 384 576 l 58 69 l 65 0 l 550 0 l 550 97 "},"™":{"x_min":-4.171875,"x_max":979.171875,"ha":1010,"o":"m 152 472 l 250 472 l 250 895 l 406 895 l 406 972 l -4 972 l -4 895 l 152 895 l 152 472 m 895 972 l 719 701 l 556 972 l 472 972 l 472 472 l 562 472 l 562 826 l 706 588 l 725 588 l 881 829 l 881 472 l 979 472 l 979 972 l 895 972 "},"ã":{"x_min":72,"x_max":644.28125,"ha":682,"o":"m 644 83 b 554 159 584 83 554 90 l 554 455 b 330 694 554 616 470 694 b 94 470 195 694 78 609 l 198 479 b 323 597 198 551 244 597 b 436 448 409 597 436 543 l 436 381 b 210 326 438 383 297 351 b 72 172 106 295 72 265 b 262 -20 72 52 158 -20 b 447 83 354 -20 409 20 l 451 83 b 644 0 473 -40 615 -16 l 644 83 m 258 266 b 436 313 317 286 436 313 l 436 225 b 304 69 436 138 384 69 b 190 186 237 69 190 112 b 258 266 190 227 203 248 m 410 818 b 527 972 504 818 535 890 l 454 972 b 415 905 454 933 444 905 b 228 970 374 905 295 970 b 113 818 147 970 106 897 l 191 818 b 233 879 191 851 203 879 b 410 818 277 879 348 818 "},"æ":{"x_min":72,"x_max":942.71875,"ha":1015,"o":"m 820 344 b 942 472 923 363 942 380 b 706 694 942 608 853 694 b 510 615 620 694 555 663 b 327 694 470 668 405 694 b 94 470 163 694 78 584 l 198 479 b 323 597 198 551 244 597 b 440 461 396 597 440 555 l 440 366 b 202 326 442 368 288 348 b 72 169 112 302 72 261 b 267 -20 72 55 158 -20 b 466 109 380 -20 439 45 b 706 -20 509 22 601 -20 b 937 194 860 -20 942 84 l 839 201 b 706 76 830 131 792 76 b 558 234 624 76 560 125 l 558 306 b 820 344 558 306 716 325 m 559 413 b 709 597 559 522 605 597 b 827 475 784 597 827 552 b 756 406 827 437 817 418 b 559 377 662 388 559 377 l 559 413 m 266 266 b 440 300 326 283 440 300 l 440 218 b 303 69 440 131 385 69 b 190 183 235 69 190 111 b 266 266 190 230 212 251 "},"É":{"x_min":125,"x_max":652.78125,"ha":722,"o":"m 125 0 l 652 0 l 652 104 l 250 104 l 250 444 l 612 444 l 612 548 l 250 548 l 250 868 l 652 868 l 652 972 l 125 972 l 125 0 m 447 1222 l 319 1041 l 420 1041 l 572 1222 l 447 1222 "},"~":{"x_min":100.71875,"x_max":565.078125,"ha":665,"o":"m 445 284 b 563 448 537 284 572 356 l 483 448 b 441 381 483 409 476 381 b 227 443 372 381 306 443 b 101 286 141 443 94 370 l 186 286 b 231 345 186 319 195 345 b 445 284 281 345 376 284 "},"³":{"x_min":52.5,"x_max":440.03125,"ha":485,"o":"m 342 706 b 245 604 342 643 305 604 b 135 701 181 604 138 640 l 52 694 b 245 527 51 602 124 527 b 440 709 353 527 440 593 b 277 858 440 819 351 862 l 428 1025 l 421 1090 l 65 1090 l 65 1013 l 319 1013 l 177 845 l 194 798 b 240 805 208 804 224 805 b 342 706 292 805 342 775 "},"④":{"x_min":65.28125,"x_max":1002.78125,"ha":1068,"o":"m 65 458 b 534 -20 65 202 272 -20 b 1002 458 795 -20 1002 202 b 534 937 1002 713 795 937 b 65 458 272 937 65 713 m 298 330 l 284 387 l 538 756 l 640 750 l 640 406 l 736 406 l 736 330 l 640 330 l 640 201 l 550 201 l 550 330 l 298 330 m 550 406 l 550 656 l 381 406 l 550 406 "},"¡":{"x_min":62.5,"x_max":237.5,"ha":300,"o":"m 216 -298 l 191 430 l 108 430 l 81 -319 l 216 -298 m 237 609 b 151 694 237 658 200 694 b 62 609 101 694 62 658 b 151 520 62 559 101 520 b 237 609 200 520 237 559 "},"[":{"x_min":100,"x_max":333.328125,"ha":413,"o":"m 100 -194 l 333 -194 l 333 -111 l 197 -111 l 197 958 l 333 958 l 333 1041 l 100 1041 l 100 -194 "},"%":{"x_min":100.4375,"x_max":1117.109375,"ha":1217,"o":"m 100 794 b 306 595 100 675 186 595 b 511 794 418 595 511 675 b 306 993 511 913 425 993 b 100 794 186 993 100 913 m 206 794 b 306 909 206 869 249 909 b 407 794 364 909 407 869 b 306 680 407 720 364 680 b 206 794 249 680 206 720 m 1006 972 l 894 972 l 206 0 l 318 0 l 1006 972 m 706 177 b 911 -20 706 58 792 -20 b 1117 177 1024 -20 1117 58 b 911 376 1117 297 1031 376 b 706 177 792 376 706 297 m 811 177 b 911 293 811 252 854 293 b 1012 177 969 293 1012 252 b 911 63 1012 104 969 63 b 811 177 854 63 811 104 "},"P":{"x_min":125,"x_max":736.109375,"ha":771,"o":"m 250 0 l 250 361 b 359 359 250 361 295 359 b 736 673 613 359 736 481 b 345 973 736 913 572 973 b 125 972 247 973 125 972 l 125 0 l 250 0 m 250 868 b 355 869 250 868 294 869 b 611 672 527 869 611 805 b 365 465 611 508 512 465 b 250 466 305 465 250 466 l 250 868 "},"∏":{"x_min":127.78125,"x_max":761.109375,"ha":889,"o":"m 761 972 l 127 972 l 127 0 l 252 0 l 252 868 l 636 868 l 636 0 l 761 0 l 761 972 "},"_":{"x_min":-4.171875,"x_max":630.5625,"ha":626,"o":"m -4 -159 l 630 -159 l 630 -55 l -4 -55 l -4 -159 "},"ñ":{"x_min":44.65625,"x_max":654.015625,"ha":747,"o":"m 127 0 l 245 0 l 245 461 b 408 597 245 515 309 597 b 536 452 491 597 536 555 l 536 0 l 654 0 l 654 466 b 447 694 654 608 572 694 b 237 580 351 694 279 648 l 236 580 b 112 680 223 650 171 680 b 44 666 87 680 66 676 l 44 590 b 127 526 98 590 127 581 l 127 0 m 480 818 b 597 972 573 818 605 890 l 523 972 b 484 905 523 933 513 905 b 298 970 444 905 365 970 b 183 818 216 970 176 897 l 261 818 b 302 879 261 851 273 879 b 480 818 347 879 418 818 "},"↖":{"x_min":44.4375,"x_max":750,"ha":801,"o":"m 138 639 l 177 580 l 679 35 l 750 103 l 233 661 l 183 698 l 563 698 l 565 785 l 55 785 l 44 773 l 44 225 l 138 225 l 138 639 "},"‚":{"x_min":-2.21875,"x_max":247.78125,"ha":271,"o":"m 31 -214 b 247 40 156 -191 247 -83 b 149 152 247 112 207 152 b 61 66 106 152 61 119 b 151 -19 61 -5 120 -23 b -2 -164 151 -19 145 -122 l 31 -214 "},"⅞":{"x_min":100,"x_max":1106.953125,"ha":1207,"o":"m 476 972 l 100 972 l 100 895 l 379 895 l 163 423 l 265 423 l 481 919 l 476 972 m 912 319 b 826 400 855 319 826 354 b 912 486 826 444 855 486 b 998 400 969 486 998 444 b 912 319 998 354 969 319 m 912 62 b 815 154 847 62 815 104 b 912 243 815 204 847 243 b 1009 154 977 243 1009 204 b 912 62 1009 104 977 62 m 912 -13 b 1106 154 1038 -13 1106 68 b 997 284 1106 216 1066 265 b 1095 413 1058 306 1095 356 b 912 562 1095 484 1033 562 b 729 413 791 562 729 484 b 827 284 729 356 766 306 b 718 154 758 265 718 216 b 912 -13 718 68 786 -13 m 941 972 l 837 972 l 155 0 l 261 0 l 941 972 "},"Æ":{"x_min":-13.890625,"x_max":1058.328125,"ha":1121,"o":"m 580 0 l 1058 0 l 1058 104 l 705 104 l 705 444 l 1018 444 l 1018 548 l 705 548 l 705 868 l 1058 868 l 1058 972 l 497 972 l -13 0 l 115 0 l 293 347 l 580 347 l 580 0 m 580 906 l 580 451 l 347 451 l 580 906 "},"☜":{"x_min":30.71875,"x_max":1791.125,"ha":1857,"o":"m 104 720 b 104 548 8 712 4 561 b 545 527 166 540 545 527 b 565 315 487 506 468 379 b 679 130 545 243 576 152 b 1126 -1 669 -75 926 -20 b 1441 72 1126 -1 1355 -45 l 1773 63 b 1759 662 1804 63 1791 662 b 1481 654 1759 662 1523 654 b 979 848 1380 654 1183 848 b 701 744 875 848 794 795 b 104 720 701 744 444 744 m 1727 336 b 1487 238 1715 91 1540 134 l 1411 395 b 1415 619 1451 443 1461 551 b 1486 605 1415 619 1452 605 b 1712 612 1569 608 1695 612 b 1727 336 1731 612 1729 363 m 972 631 b 620 536 822 631 759 536 b 527 601 561 536 519 600 b 720 701 527 601 636 662 b 987 801 866 784 897 801 b 1316 666 1076 801 1180 758 b 1304 404 1404 608 1425 413 b 1302 366 1304 404 1298 366 b 1422 204 1347 359 1422 327 b 1279 47 1422 106 1351 47 b 1220 372 1154 47 1116 311 l 1226 409 b 972 631 1055 458 1126 631 m 812 29 b 752 134 725 19 712 129 b 1025 176 752 134 970 165 b 1051 81 1075 187 1100 97 b 812 29 998 66 848 33 m 683 187 b 654 305 611 187 584 294 b 1008 347 725 316 966 347 b 1018 240 1058 347 1068 251 b 683 187 941 223 787 187 m 609 358 b 590 486 552 359 526 468 b 965 516 623 495 891 516 b 991 404 1033 516 1048 419 b 609 358 962 397 640 356 m 120 593 b 122 679 66 597 72 676 b 611 701 269 687 611 701 b 120 593 402 591 408 569 "},"ﬆ":{"x_min":82.265625,"x_max":1073.890625,"ha":1083,"o":"m 866 191 l 866 590 l 1053 590 l 1053 673 l 866 673 l 866 755 b 600 1041 865 961 748 1041 b 364 737 416 1041 325 879 b 455 711 383 736 430 727 b 600 944 419 815 451 944 b 748 761 693 944 748 893 l 748 673 l 651 673 l 651 590 l 748 590 l 748 186 b 941 -20 748 33 843 -20 b 1073 0 976 -20 1036 -15 l 1068 83 b 982 76 1068 83 1026 76 b 866 191 922 76 866 90 m 540 483 b 329 694 554 594 472 694 b 100 491 200 694 100 613 b 293 286 100 369 191 320 b 441 166 390 252 441 225 b 329 76 441 106 394 76 b 186 201 244 76 194 133 l 82 194 b 329 -20 83 75 179 -20 b 560 176 471 -20 560 66 b 347 387 560 308 447 348 b 218 504 278 413 218 440 b 325 597 218 561 265 597 b 436 476 394 597 436 551 l 540 483 "},"ª":{"x_min":93.5625,"x_max":486.609375,"ha":579,"o":"m 486 603 b 428 655 449 603 428 610 l 428 824 b 272 985 428 933 361 985 b 106 826 154 985 99 912 l 189 833 b 267 916 189 881 214 916 b 338 831 317 916 338 884 l 338 790 b 192 762 338 790 240 773 b 97 656 135 749 97 722 b 225 527 97 577 149 527 b 347 597 285 527 324 558 b 486 541 368 522 458 527 l 486 603 m 93 305 l 486 305 l 486 395 l 93 395 l 93 305 m 232 716 b 338 737 271 727 338 737 l 338 692 b 254 597 338 637 314 597 b 188 659 217 597 188 616 b 232 716 188 692 203 708 "},"Œ":{"x_min":83.328125,"x_max":1054.171875,"ha":1117,"o":"m 554 0 l 1054 0 l 1054 104 l 672 104 l 672 444 l 1020 444 l 1020 548 l 672 548 l 672 868 l 1054 868 l 1054 972 l 555 972 b 415 993 515 986 459 993 b 87 683 236 993 95 869 b 87 287 81 562 81 415 b 412 -20 95 100 233 -20 b 554 0 456 -20 513 -13 m 416 83 b 205 288 300 83 209 159 b 205 683 201 423 201 573 b 415 888 209 809 298 888 b 554 861 461 888 518 881 l 554 109 b 416 83 518 88 461 83 "},"ﬀ":{"x_min":23.609375,"x_max":881.953125,"ha":822,"o":"m 238 766 b 343 930 238 888 273 930 b 434 906 400 930 434 906 l 472 986 b 336 1034 447 1008 401 1034 b 120 773 216 1034 120 954 l 120 673 l 23 673 l 23 590 l 120 590 l 120 0 l 238 0 l 238 590 l 530 590 l 530 0 l 648 0 l 648 590 l 815 590 l 815 673 l 648 673 l 648 773 b 752 937 648 895 683 937 b 844 913 809 937 844 913 l 881 993 b 745 1041 856 1015 811 1041 b 530 780 626 1041 530 961 l 530 673 l 238 673 l 238 766 "},"T":{"x_min":13.890625,"x_max":688.890625,"ha":703,"o":"m 288 0 l 413 0 l 413 868 l 688 868 l 688 972 l 13 972 l 13 868 l 288 868 l 288 0 "},"š":{"x_min":71.9375,"x_max":550.015625,"ha":615,"o":"m 530 483 b 319 694 544 594 462 694 b 89 491 190 694 89 613 b 283 286 89 369 181 320 b 431 166 380 252 431 225 b 319 76 431 106 384 76 b 176 201 234 76 184 133 l 71 194 b 319 -20 73 75 169 -20 b 550 176 461 -20 550 66 b 337 387 550 308 437 348 b 208 504 267 413 208 440 b 315 597 208 561 255 597 b 426 476 384 597 426 551 l 530 483 m 348 750 l 513 965 l 405 965 l 312 836 l 215 965 l 106 965 l 274 750 l 348 750 "},"Þ":{"x_min":125,"x_max":743.0625,"ha":778,"o":"m 250 972 l 125 972 l 125 0 l 250 0 l 250 201 b 383 200 250 201 315 200 b 743 501 620 200 743 312 b 383 793 743 737 572 793 b 250 791 311 793 250 791 l 250 972 m 250 687 b 380 688 250 687 318 688 b 618 500 551 688 618 626 b 376 305 618 338 509 305 b 250 306 315 305 250 306 l 250 687 "},"j":{"x_min":9.71875,"x_max":259.71875,"ha":339,"o":"m 238 687 l 120 638 l 120 -180 b 9 -265 120 -250 95 -263 l 9 -348 b 238 -201 147 -384 238 -319 l 238 687 m 100 912 b 177 833 100 866 133 833 b 259 912 225 833 259 866 b 177 993 259 958 225 993 b 100 912 133 993 100 958 "},"1":{"x_min":93.0625,"x_max":484.71875,"ha":550,"o":"m 229 632 l 229 94 l 95 90 l 95 0 l 484 0 l 484 90 l 354 94 l 354 751 l 311 757 l 93 701 l 104 627 l 229 632 "},"›":{"x_min":30.5625,"x_max":343.0625,"ha":401,"o":"m 211 341 l 211 332 l 31 165 l 87 96 l 343 332 l 343 341 l 91 589 l 30 520 l 211 341 "},"→":{"x_min":51.390625,"x_max":1030.5625,"ha":1068,"o":"m 550 62 l 618 -12 l 1030 368 l 1030 376 l 618 754 l 545 677 l 795 457 l 851 420 l 51 422 l 51 318 l 850 319 l 793 282 l 550 62 "},"<":{"x_min":93.0625,"x_max":626.390625,"ha":699,"o":"m 93 323 l 576 -12 l 626 62 l 231 341 l 231 355 l 625 626 l 577 701 l 93 356 l 93 323 "},"⑤":{"x_min":65.28125,"x_max":1002.78125,"ha":1068,"o":"m 65 458 b 534 -20 65 202 272 -20 b 1002 458 795 -20 1002 202 b 534 937 1002 713 795 937 b 65 458 272 937 65 713 m 723 377 b 527 187 723 256 637 187 b 338 354 427 187 338 241 l 422 361 b 527 263 422 298 466 263 b 626 375 588 263 626 306 b 520 484 626 448 584 484 b 436 445 481 484 451 466 l 362 452 l 395 750 l 686 750 l 686 673 l 465 673 l 448 512 b 554 554 448 512 491 554 b 723 377 650 554 723 484 "},"t":{"x_min":30.5625,"x_max":452.78125,"ha":463,"o":"m 245 191 l 245 590 l 431 590 l 431 673 l 245 673 l 245 868 l 127 819 l 127 673 l 30 673 l 30 590 l 127 590 l 127 186 b 320 -20 127 33 222 -20 b 452 0 355 -20 415 -15 l 447 83 b 361 76 447 83 405 76 b 245 191 301 76 245 90 "},"¬":{"x_min":51.390625,"x_max":630.5625,"ha":682,"o":"m 51 312 l 526 312 l 526 51 l 630 51 l 630 416 l 51 416 l 51 312 "},"ù":{"x_min":86,"x_max":686,"ha":724,"o":"m 595 688 l 477 639 l 477 207 b 330 76 477 146 429 76 b 204 228 251 76 204 125 l 204 688 l 86 639 l 86 206 b 298 -20 86 57 174 -20 b 488 83 398 -20 456 26 l 491 83 b 686 0 520 -32 649 -16 l 686 83 b 595 160 626 83 595 90 l 595 688 m 106 972 l 288 771 l 398 771 l 245 972 l 106 972 "},"ï":{"x_min":-48.609375,"x_max":356.9375,"ha":339,"o":"m 211 688 l 93 639 l 93 133 b 301 0 93 -5 201 -27 l 301 83 b 211 175 236 83 211 106 l 211 688 m -48 897 b 27 821 -48 853 -15 821 b 106 897 73 821 106 853 b 27 975 106 942 73 975 b -48 897 -15 975 -48 942 m 201 897 b 276 821 201 853 233 821 b 356 897 322 821 356 853 b 276 975 356 942 322 975 b 201 897 233 975 201 942 "},"Ò":{"x_min":90.28125,"x_max":770.828125,"ha":861,"o":"m 240 1222 l 397 1041 l 504 1041 l 365 1222 l 240 1222 m 430 83 b 219 301 304 83 223 165 b 219 673 215 436 216 566 b 430 888 223 809 304 888 b 641 673 556 888 637 809 b 641 301 644 566 645 436 b 430 83 637 165 556 83 m 430 -20 b 766 300 626 -20 758 105 b 766 676 772 427 772 555 b 430 993 758 869 627 993 b 94 676 234 993 102 869 b 94 300 88 555 88 427 b 430 -20 102 105 234 -20 "},"&":{"x_min":90.4375,"x_max":912.65625,"ha":933,"o":"m 427 586 b 264 748 325 591 264 643 b 422 888 264 840 326 888 b 575 729 514 888 575 829 l 686 736 b 425 993 697 888 583 993 b 139 748 241 993 139 880 b 287 538 139 638 207 561 b 90 281 190 505 90 427 b 441 -20 90 98 233 -20 b 796 376 679 -20 796 169 b 793 488 796 444 793 488 l 912 488 l 912 586 l 573 586 l 573 488 l 684 488 l 684 376 b 441 83 684 204 608 83 b 215 281 311 83 215 151 b 426 488 215 391 296 488 l 457 488 l 457 586 l 427 586 "},"I":{"x_min":125,"x_max":250,"ha":375,"o":"m 250 972 l 125 972 l 125 0 l 250 0 l 250 972 "},"G":{"x_min":90.78125,"x_max":770.390625,"ha":840,"o":"m 436 993 b 94 672 254 993 104 888 b 94 305 90 566 88 406 b 437 -20 105 88 255 -20 b 769 308 651 -20 761 116 b 768 506 772 394 768 506 l 438 506 l 438 409 l 650 409 b 651 306 650 409 654 365 b 441 81 645 176 583 81 b 219 300 325 81 223 155 b 219 672 215 423 216 584 b 433 888 225 825 309 888 b 623 708 548 888 623 812 l 734 715 b 436 993 743 869 626 993 "},"ʲ":{"x_min":16.671875,"x_max":190.28125,"ha":249,"o":"m 179 981 l 87 950 l 87 463 b 16 409 87 419 72 411 l 16 347 b 179 441 105 320 179 366 l 179 981 m 79 1108 b 133 1052 79 1076 101 1052 b 190 1108 166 1052 190 1076 b 133 1163 190 1140 166 1163 b 79 1108 101 1163 79 1140 "},"`":{"x_min":65.28125,"x_max":356.9375,"ha":540,"o":"m 65 972 l 247 770 l 356 770 l 204 972 l 65 972 "},"₉":{"x_min":65.28125,"x_max":455.25,"ha":514,"o":"m 450 20 b 450 238 458 88 455 176 b 255 423 438 354 358 423 b 65 230 144 423 65 338 b 231 55 65 119 145 55 b 363 130 333 55 362 127 b 359 20 363 94 363 58 b 258 -76 352 -37 316 -76 b 154 12 201 -76 154 -43 l 70 5 b 258 -152 70 -86 148 -152 b 450 20 366 -152 437 -88 m 361 230 b 252 125 361 175 313 125 b 155 237 195 125 155 170 b 255 347 155 304 197 347 b 361 230 322 347 361 287 "},"·":{"x_min":61.109375,"x_max":241.671875,"ha":306,"o":"m 61 381 b 150 293 61 331 98 293 b 241 381 202 293 241 331 b 150 473 241 433 202 473 b 61 381 98 473 61 433 "},"ˣ":{"x_min":30.5625,"x_max":440.28125,"ha":450,"o":"m 340 541 l 440 541 l 286 759 l 427 972 l 331 972 l 238 829 l 138 972 l 38 972 l 181 766 l 30 541 l 126 541 l 230 698 l 340 541 "},"¿":{"x_min":62.5,"x_max":582.84375,"ha":618,"o":"m 276 430 l 276 381 b 200 193 276 302 273 276 b 62 -77 123 106 62 30 b 309 -319 62 -222 175 -319 b 581 -34 477 -319 594 -198 l 470 -41 b 313 -215 468 -151 411 -215 b 187 -72 238 -215 187 -162 b 287 127 187 12 230 58 b 375 391 369 227 381 268 l 372 430 l 276 430 m 409 609 b 323 694 409 658 372 694 b 234 609 273 694 234 658 b 323 520 234 559 273 520 b 409 609 372 520 409 559 "},"⓪":{"x_min":65.28125,"x_max":1002.78125,"ha":1068,"o":"m 65 458 b 534 -20 65 201 272 -20 b 1002 458 795 -20 1002 201 b 534 937 1002 715 795 937 b 65 458 272 937 65 715 m 736 388 b 531 187 733 266 647 187 b 331 388 415 187 333 266 b 331 565 330 458 330 508 b 534 763 333 686 418 763 b 736 565 650 763 733 686 b 736 388 737 508 737 458 m 638 565 b 534 687 636 641 598 687 b 429 565 470 687 430 641 b 429 388 427 508 427 445 b 534 263 430 308 476 263 b 638 388 593 263 636 308 b 638 565 640 445 640 508 "},"ý":{"x_min":9.71875,"x_max":573.609375,"ha":583,"o":"m 81 -348 l 194 -348 b 573 673 313 -43 556 629 l 452 673 l 313 250 l 293 166 l 291 166 l 270 251 l 133 673 l 9 673 l 231 34 l 81 -348 m 379 972 l 226 770 l 334 770 l 518 972 l 379 972 "},"º":{"x_min":93.75,"x_max":465.96875,"ha":560,"o":"m 94 298 l 465 298 l 465 388 l 94 388 l 94 298 m 463 693 b 463 822 466 743 466 776 b 280 986 458 916 394 986 b 95 822 163 986 100 916 b 95 693 93 768 93 748 b 280 527 100 598 168 527 b 463 693 391 527 458 598 m 373 820 b 373 695 376 766 376 741 b 280 597 370 634 331 597 b 186 695 227 597 190 634 b 186 820 183 740 183 773 b 280 916 188 883 227 916 b 373 820 333 916 370 883 "},"∞":{"x_min":65.28125,"x_max":994.453125,"ha":1060,"o":"m 638 393 b 768 465 638 393 680 465 b 883 347 838 465 883 416 b 777 229 883 279 843 229 b 305 562 637 229 527 562 b 65 345 163 562 65 465 b 283 131 65 227 151 131 b 461 259 416 131 461 259 l 419 305 b 295 229 419 305 391 229 b 176 347 222 229 176 277 b 294 465 176 426 227 465 b 773 131 447 465 544 131 b 994 354 911 131 994 234 b 781 562 994 465 920 562 b 598 448 641 562 598 448 l 638 393 "},"₃":{"x_min":52.34375,"x_max":440.03125,"ha":485,"o":"m 342 26 b 245 -76 342 -37 305 -76 b 135 20 181 -76 138 -40 l 52 13 b 245 -152 50 -77 124 -152 b 440 29 353 -152 440 -87 b 277 177 440 138 351 181 l 428 344 l 421 409 l 64 409 l 64 333 l 318 333 l 177 165 l 194 118 b 239 125 207 123 224 125 b 342 26 292 125 342 94 "},";":{"x_min":-4.171875,"x_max":245.828125,"ha":307,"o":"m 29 -214 b 245 40 154 -191 245 -83 b 147 152 245 112 205 152 b 59 66 104 152 59 119 b 150 -19 59 -5 118 -23 b -4 -164 150 -19 143 -122 l 29 -214 m 59 519 b 148 430 59 469 97 430 b 240 519 201 430 240 469 b 148 611 240 570 201 611 b 59 519 97 611 59 570 "},"6":{"x_min":86.609375,"x_max":704.171875,"ha":776,"o":"m 90 312 b 406 -20 100 108 222 -20 b 704 293 583 -20 704 98 b 429 583 704 501 568 583 b 208 443 326 583 244 525 b 211 661 206 519 208 597 b 395 868 216 795 281 868 b 551 708 501 868 550 801 l 662 715 b 402 972 668 890 541 972 b 90 661 212 972 98 841 b 90 312 84 554 86 404 m 405 486 b 579 293 497 486 579 433 b 406 83 579 155 512 83 b 212 286 290 83 223 163 b 405 486 209 408 304 486 "},"n":{"x_min":44.4375,"x_max":654.171875,"ha":747,"o":"m 127 0 l 245 0 l 245 461 b 408 597 245 515 309 597 b 536 452 491 597 536 555 l 536 0 l 654 0 l 654 466 b 447 694 654 608 572 694 b 237 580 351 694 279 648 l 236 580 b 112 680 223 650 170 680 b 44 666 87 680 66 676 l 44 590 b 127 526 98 590 127 581 l 127 0 "},"∂":{"x_min":65.28125,"x_max":683.328125,"ha":742,"o":"m 134 876 b 288 893 191 890 243 893 b 563 494 480 893 568 708 b 354 597 520 561 447 597 b 65 295 202 597 65 480 b 363 -20 65 97 190 -20 b 683 440 537 -20 683 109 b 300 993 683 706 594 993 b 115 966 243 993 181 984 l 134 876 m 561 355 b 363 75 561 170 476 75 b 190 290 272 75 190 144 b 368 501 190 431 268 501 b 561 355 454 501 536 451 "},"p":{"x_min":37.5,"x_max":660.40625,"ha":740,"o":"m 238 462 b 397 597 238 529 319 597 b 540 459 490 597 536 547 b 540 225 544 379 544 305 b 406 76 534 126 483 76 b 238 233 312 76 238 119 l 238 462 m 120 -347 l 238 -347 l 238 76 l 240 76 b 433 -20 277 16 347 -20 b 658 230 556 -20 652 70 b 658 458 661 327 661 370 b 440 694 654 601 570 694 b 230 580 340 694 268 644 l 229 580 b 105 680 216 650 163 680 b 37 666 80 680 59 676 l 37 590 b 120 526 91 590 120 581 l 120 -347 "},"‡":{"x_min":86.109375,"x_max":643.0625,"ha":729,"o":"m 643 58 l 408 49 l 405 597 l 640 588 l 643 681 l 406 672 l 419 993 l 312 965 l 322 672 l 88 681 l 86 588 b 325 598 123 588 280 595 l 323 48 l 88 58 l 86 -34 l 322 -25 l 312 -346 l 419 -318 l 406 -25 l 640 -34 l 643 58 "},"√":{"x_min":37.5,"x_max":883.328125,"ha":782,"o":"m 37 590 l 130 590 l 337 0 l 448 0 l 883 1041 l 779 1041 l 409 133 l 236 673 l 37 673 l 37 590 "},"⁴":{"x_min":16.671875,"x_max":468.0625,"ha":499,"o":"m 281 670 l 281 541 l 372 541 l 372 670 l 468 670 l 468 747 l 372 747 l 372 1090 l 270 1097 l 16 727 l 30 670 l 281 670 m 113 747 l 281 997 l 281 747 l 113 747 "},"S":{"x_min":76.390625,"x_max":709.71875,"ha":779,"o":"m 584 230 b 402 83 584 131 506 83 b 187 272 286 83 201 161 l 76 265 b 398 -20 87 76 227 -20 b 709 254 573 -20 709 87 b 423 544 709 427 554 488 b 231 740 313 591 231 631 b 400 888 231 838 306 888 b 572 709 512 888 572 827 l 683 716 b 400 993 698 894 573 993 b 106 720 233 993 106 879 b 372 436 106 550 241 490 b 584 230 479 391 584 351 "},"/":{"x_min":-18.0625,"x_max":569.4375,"ha":551,"o":"m 569 1041 l 469 1041 l -18 -194 l 86 -194 l 569 1041 "},"y":{"x_min":9.71875,"x_max":573.609375,"ha":583,"o":"m 81 -348 l 194 -348 b 573 673 313 -43 556 629 l 452 673 l 313 250 l 293 166 l 291 166 l 270 251 l 133 673 l 9 673 l 231 34 l 81 -348 "},"≈":{"x_min":121.59375,"x_max":621.9375,"ha":743,"o":"m 498 173 b 620 337 590 173 629 245 l 540 337 b 494 270 540 298 529 270 b 252 331 418 270 338 331 b 122 175 166 331 115 259 l 206 175 b 256 234 206 208 220 234 b 498 173 313 234 422 173 m 498 423 b 620 587 590 423 629 495 l 540 587 b 494 520 540 548 529 520 b 252 581 418 520 338 581 b 122 425 166 581 115 509 l 206 425 b 256 484 206 458 220 484 b 498 423 313 484 422 423 "},"g":{"x_min":58.34375,"x_max":696.484375,"ha":728,"o":"m 362 205 b 619 441 510 205 619 298 b 510 605 619 534 556 581 l 512 607 b 695 582 512 607 582 581 b 695 673 696 599 696 657 l 496 673 b 365 694 460 684 419 694 b 106 448 213 694 106 589 b 209 246 106 357 145 288 b 104 123 162 232 104 191 b 241 6 104 48 166 16 l 306 -1 l 306 -5 l 199 -25 b 133 -46 199 -25 173 -30 b 58 -162 79 -67 58 -101 b 370 -361 58 -280 195 -361 b 687 -122 578 -361 687 -242 b 513 66 687 -5 608 46 b 258 107 438 81 329 95 b 208 157 222 114 208 131 b 262 221 208 189 236 212 b 362 205 292 210 326 205 m 453 -24 b 569 -128 521 -35 569 -64 b 370 -264 569 -222 485 -264 b 176 -144 273 -264 176 -224 b 231 -72 176 -103 198 -89 b 402 -15 286 -44 370 -24 l 453 -24 m 365 603 b 501 448 455 603 501 537 b 365 302 501 350 446 302 b 224 448 270 302 224 359 b 365 603 224 545 287 603 "},"²":{"x_min":70.828125,"x_max":466.671875,"ha":525,"o":"m 77 541 l 466 541 l 466 618 l 184 618 b 306 709 190 622 247 662 b 438 931 383 770 438 841 b 256 1104 438 1036 368 1104 b 72 909 133 1104 61 1015 l 155 916 b 256 1027 154 987 195 1027 b 341 930 308 1027 341 994 b 237 748 341 855 297 802 b 70 609 173 690 119 650 l 77 541 "},"ë":{"x_min":80.25,"x_max":583.71875,"ha":656,"o":"m 461 338 b 583 465 564 361 583 373 b 347 694 583 602 494 694 b 82 436 179 694 89 579 b 82 229 79 370 79 327 b 347 -20 86 80 183 -20 b 582 194 501 -20 587 84 l 485 201 b 347 76 475 131 433 76 b 199 250 258 76 199 136 l 199 294 b 461 338 199 294 357 316 m 199 413 b 347 597 199 520 243 597 b 465 468 422 597 465 547 b 394 404 465 430 455 418 b 199 370 299 383 199 370 l 199 413 m 133 894 b 210 818 133 850 167 818 b 289 894 255 818 289 850 b 210 972 289 938 255 972 b 133 894 167 972 133 938 m 383 894 b 458 818 383 850 415 818 b 539 894 504 818 539 850 b 458 972 539 938 504 972 b 383 894 415 972 383 938 "},"–":{"x_min":51.390625,"x_max":658.328125,"ha":710,"o":"m 51 312 l 658 312 l 658 416 l 51 416 l 51 312 "},"ƒ":{"x_min":-52.78125,"x_max":705.5625,"ha":708,"o":"m 575 590 l 588 673 l 425 673 b 441 786 430 718 436 755 b 577 937 459 897 508 937 b 669 916 629 937 669 916 l 705 998 b 573 1041 705 998 650 1041 b 325 786 473 1041 359 990 b 308 673 319 758 313 719 l 211 673 l 198 590 l 297 590 b 211 -106 265 347 226 -2 b 73 -256 194 -218 145 -256 b -16 -234 22 -256 -16 -234 l -52 -316 b 91 -361 -52 -316 13 -361 b 327 -106 184 -361 294 -319 b 413 590 350 38 384 359 l 575 590 "},"J":{"x_min":49.390625,"x_max":607.40625,"ha":719,"o":"m 480 972 b 480 270 480 972 484 380 b 323 83 476 156 427 83 b 159 270 205 83 158 162 l 50 263 b 323 -21 40 99 147 -21 b 605 270 504 -21 600 102 b 605 972 609 406 605 972 l 480 972 "},"Ã":{"x_min":20.828125,"x_max":819.453125,"ha":840,"o":"m 687 0 l 819 0 l 479 972 l 340 972 l 351 936 l 20 0 l 145 0 l 234 263 l 600 263 l 687 0 m 386 719 l 418 831 l 450 722 l 566 368 l 269 368 l 386 719 m 497 1055 b 601 1195 583 1055 609 1113 l 527 1195 b 495 1136 527 1156 518 1136 b 338 1194 469 1136 398 1194 b 236 1055 263 1194 229 1134 l 313 1055 b 348 1109 313 1088 326 1109 b 497 1055 379 1109 441 1055 "},"⁽":{"x_min":79.171875,"x_max":287.5,"ha":353,"o":"m 79 798 b 227 361 79 601 166 429 l 287 391 b 169 798 237 476 169 628 b 287 1202 169 969 237 1117 l 227 1233 b 79 798 173 1163 79 996 "},"©":{"x_min":79.171875,"x_max":1091.671875,"ha":1171,"o":"m 79 486 b 584 -19 79 206 305 -19 b 1091 486 865 -19 1091 206 b 584 993 1091 766 865 993 b 79 486 305 993 79 766 m 159 486 b 584 923 159 726 345 923 b 1009 486 825 923 1009 726 b 584 50 1009 247 825 50 b 159 486 345 50 159 247 m 773 611 b 584 790 781 718 693 790 b 373 583 465 790 380 706 b 373 383 370 531 370 443 b 586 181 379 255 465 181 b 775 370 684 181 781 252 l 691 377 b 586 265 691 306 650 265 b 470 388 518 265 475 306 b 470 583 468 452 466 523 b 584 706 476 662 518 706 b 690 604 648 706 690 670 l 773 611 "},"˘":{"x_min":101.03125,"x_max":493.421875,"ha":594,"o":"m 297 848 b 191 972 233 848 198 888 l 101 972 b 297 758 94 837 188 758 b 493 972 405 758 500 837 l 402 972 b 297 848 395 888 362 848 "},"≥":{"x_min":72.21875,"x_max":619.4375,"ha":685,"o":"m 619 89 l 80 89 l 80 0 l 619 0 l 619 89 m 605 513 l 127 858 l 73 782 l 466 501 l 466 488 l 72 219 l 122 144 l 605 480 l 605 513 "},"↑":{"x_min":37.5,"x_max":786.109375,"ha":824,"o":"m 708 455 l 786 525 l 425 922 l 409 922 l 37 525 l 106 455 l 322 693 l 361 761 l 356 -50 l 468 -50 l 463 761 l 504 690 l 708 455 "},"D":{"x_min":125,"x_max":766.328125,"ha":857,"o":"m 125 0 b 313 -6 125 0 197 -6 b 761 333 548 -6 747 80 b 761 656 768 456 768 554 b 327 979 743 919 537 979 b 125 972 223 979 125 972 l 125 0 m 636 650 b 636 327 643 540 643 443 b 336 97 625 136 468 97 b 250 100 288 97 250 100 l 250 872 b 341 875 250 872 280 875 b 636 650 509 875 625 811 "},"ʸ":{"x_min":9.71875,"x_max":397.21875,"ha":407,"o":"m 76 347 l 163 347 b 397 972 240 543 386 944 l 304 972 l 220 712 b 205 668 213 695 205 670 b 191 713 204 672 195 697 l 104 972 l 9 972 l 162 569 l 76 347 "},"ÿ":{"x_min":9.71875,"x_max":573.609375,"ha":583,"o":"m 81 -348 l 194 -348 b 573 673 313 -43 556 629 l 452 673 l 313 250 l 293 166 l 291 166 l 270 251 l 133 673 l 9 673 l 231 34 l 81 -348 m 91 894 b 168 818 91 850 125 818 b 247 894 213 818 247 850 b 168 972 247 938 213 972 b 91 894 125 972 91 938 m 341 894 b 416 818 341 850 373 818 b 497 894 462 818 497 850 b 416 972 497 938 462 972 b 341 894 373 972 341 938 "},"$":{"x_min":108.328125,"x_max":677.78125,"ha":769,"o":"m 559 273 b 406 145 559 189 497 145 b 212 298 311 145 222 189 l 108 291 b 355 51 111 145 220 66 l 355 -90 l 452 -52 l 452 51 b 677 282 572 66 677 144 b 436 540 677 416 602 472 b 241 710 343 577 241 616 b 390 841 241 802 313 841 b 544 688 479 841 544 788 l 648 695 b 445 934 656 842 558 916 l 445 1083 l 348 1045 l 348 935 b 123 701 219 919 123 831 b 345 447 123 554 220 499 b 559 273 480 390 559 370 "},"w":{"x_min":16.671875,"x_max":930.5625,"ha":947,"o":"m 693 222 l 676 127 l 673 127 l 656 222 l 527 673 l 427 673 l 294 222 l 277 127 l 275 127 l 255 222 l 141 673 l 16 673 l 216 0 l 330 0 l 445 391 l 470 519 l 475 519 l 500 391 l 611 0 l 727 0 l 930 673 l 813 673 l 693 222 "},"∫":{"x_min":-59.71875,"x_max":538.890625,"ha":479,"o":"m 298 773 b 408 944 298 902 334 944 b 509 911 462 944 509 911 l 538 993 b 393 1041 513 1015 456 1041 b 180 780 273 1041 180 961 l 180 -79 b 70 -250 180 -208 144 -250 b -30 -216 16 -250 -30 -216 l -59 -298 b 86 -347 -34 -320 22 -347 b 298 -86 205 -347 298 -266 l 298 773 "},"\\":{"x_min":-18.0625,"x_max":555.5625,"ha":538,"o":"m 452 -194 l 555 -194 l 83 1041 l -18 1041 l 452 -194 "},"Ì":{"x_min":-16.671875,"x_max":250,"ha":375,"o":"m 250 972 l 125 972 l 125 0 l 250 0 l 250 972 m -16 1222 l 140 1041 l 247 1041 l 108 1222 l -16 1222 "},"Ç":{"x_min":91.328125,"x_max":743.171875,"ha":800,"o":"m 736 715 b 436 993 744 869 633 993 b 94 672 231 993 102 862 b 94 291 90 565 90 400 b 427 -20 101 88 238 -20 b 743 263 625 -20 747 109 l 631 270 b 427 83 627 155 554 83 b 219 293 313 83 223 161 b 219 672 215 430 215 559 b 433 888 225 815 300 888 b 625 708 555 888 625 812 l 736 715 m 281 -220 b 409 -347 273 -298 336 -347 b 538 -220 490 -347 538 -287 b 401 -94 538 -141 481 -87 l 401 -170 b 455 -220 434 -170 455 -187 b 409 -270 455 -255 433 -270 b 358 -220 379 -270 358 -252 l 281 -220 "},"↙":{"x_min":44.4375,"x_max":750,"ha":801,"o":"m 138 635 l 44 635 l 44 87 l 55 76 l 565 76 l 563 162 l 183 162 l 233 199 l 750 757 l 679 826 l 177 280 l 138 221 l 138 635 "},"C":{"x_min":91.328125,"x_max":743.171875,"ha":800,"o":"m 736 715 b 436 993 744 869 633 993 b 94 672 231 993 102 862 b 94 291 90 565 90 400 b 427 -20 101 88 238 -20 b 743 263 625 -20 747 109 l 631 270 b 427 83 627 155 554 83 b 219 293 313 83 223 161 b 219 672 215 430 215 559 b 433 888 225 815 300 888 b 625 708 555 888 625 812 l 736 715 "},"!":{"x_min":62.5,"x_max":237.5,"ha":300,"o":"m 83 972 l 108 243 l 191 243 l 218 993 l 83 972 m 62 63 b 148 -20 62 15 100 -20 b 237 63 198 -20 237 15 b 148 152 237 113 198 152 b 62 63 100 152 62 113 "},"ç":{"x_min":79.875,"x_max":579.4375,"ha":625,"o":"m 347 -20 b 579 194 502 -20 584 84 l 481 201 b 347 76 472 131 430 76 b 200 243 259 76 204 127 b 200 444 197 316 197 358 b 341 597 204 545 261 597 b 475 479 411 597 470 562 l 579 486 b 341 694 583 611 491 694 b 81 444 195 694 87 608 b 81 222 79 363 79 312 b 347 -20 86 59 198 -20 m 202 -219 b 330 -345 194 -297 256 -345 b 459 -219 411 -345 459 -286 b 322 -93 459 -140 402 -86 l 322 -169 b 376 -219 355 -169 376 -186 b 330 -269 376 -254 354 -269 b 279 -219 300 -269 279 -251 l 202 -219 "},"È":{"x_min":125,"x_max":652.78125,"ha":722,"o":"m 125 0 l 652 0 l 652 104 l 250 104 l 250 444 l 612 444 l 612 548 l 250 548 l 250 868 l 652 868 l 652 972 l 125 972 l 125 0 m 177 1222 l 334 1041 l 441 1041 l 302 1222 l 177 1222 "},"ﬁ":{"x_min":23.609375,"x_max":716.671875,"ha":754,"o":"m 626 673 l 238 673 l 238 773 b 340 937 238 895 275 937 b 427 918 395 937 427 918 l 465 997 b 333 1041 441 1016 395 1041 b 120 780 216 1041 120 961 l 120 673 l 23 673 l 23 590 l 120 590 l 120 0 l 238 0 l 238 590 l 508 590 l 508 133 b 716 0 508 -5 616 -27 l 716 83 b 626 175 651 83 626 105 l 626 673 m 487 919 b 565 840 487 873 520 840 b 647 919 612 840 647 873 b 565 1000 647 965 612 1000 b 487 919 520 1000 487 965 "},"X":{"x_min":20.828125,"x_max":775,"ha":775,"o":"m 629 0 l 775 0 l 462 506 l 738 972 l 602 972 l 391 584 l 165 972 l 20 972 l 309 500 l 23 0 l 158 0 l 386 420 l 629 0 "},"ô":{"x_min":79.84375,"x_max":621.140625,"ha":701,"o":"m 618 229 b 618 447 622 327 622 361 b 351 694 611 594 506 694 b 82 447 194 694 89 594 b 82 229 78 361 78 336 b 351 -20 88 80 198 -20 b 618 229 504 -20 611 80 m 499 444 b 499 231 502 358 502 305 b 351 76 495 143 438 76 b 201 233 262 76 205 143 b 201 444 198 304 198 358 b 351 597 203 536 262 597 b 499 444 440 597 497 534 m 310 972 l 142 763 l 251 763 l 347 880 l 441 763 l 552 763 l 384 972 l 310 972 "},"}":{"x_min":73.515625,"x_max":402.6875,"ha":501,"o":"m 288 893 b 73 1033 288 1011 173 1061 l 73 956 b 191 886 124 963 191 955 l 191 601 b 324 425 191 525 231 437 b 191 259 231 409 191 356 l 191 -37 b 73 -108 191 -106 124 -115 l 73 -184 b 288 -44 173 -212 288 -162 l 288 259 b 402 387 288 348 345 375 l 402 456 b 288 601 338 476 288 512 l 288 893 "},"â":{"x_min":72,"x_max":644.296875,"ha":682,"o":"m 644 83 b 554 159 584 83 554 90 l 554 455 b 330 694 554 616 470 694 b 94 470 195 694 78 609 l 198 479 b 323 597 198 551 244 597 b 436 448 409 597 436 543 l 436 381 b 210 326 438 383 297 351 b 72 172 106 295 72 265 b 262 -20 72 52 158 -20 b 447 83 354 -20 409 20 l 451 83 b 644 0 473 -40 615 -16 l 644 83 m 258 266 b 436 313 317 286 436 313 l 436 225 b 304 69 436 138 384 69 b 190 186 237 69 190 112 b 258 266 190 227 203 248 m 273 972 l 105 763 l 213 763 l 309 880 l 404 763 l 515 763 l 347 972 l 273 972 "},"ø":{"x_min":59.375,"x_max":649.96875,"ha":708,"o":"m 618 229 b 618 447 622 327 622 361 b 573 586 615 500 599 547 l 649 694 l 566 694 l 526 637 b 351 694 480 673 420 694 b 82 447 194 694 89 594 b 82 229 78 361 78 336 b 131 81 84 172 102 122 l 59 -20 l 142 -20 l 180 31 b 351 -20 226 -1 284 -20 b 618 229 504 -20 611 80 m 201 233 b 201 444 198 304 198 358 b 351 597 203 536 262 597 b 462 548 398 597 437 579 l 208 188 b 201 233 203 202 201 218 m 499 444 b 499 231 502 358 502 305 b 351 76 495 143 438 76 b 242 120 305 76 269 93 l 495 477 b 499 444 498 466 498 455 "},"Δ":{"x_min":34.71875,"x_max":887.5,"ha":922,"o":"m 887 56 l 515 972 l 409 972 l 34 56 l 55 0 l 869 0 l 887 56 m 459 823 l 751 97 l 162 97 l 459 823 "},"Ä":{"x_min":20.828125,"x_max":819.453125,"ha":840,"o":"m 687 0 l 819 0 l 479 972 l 340 972 l 351 936 l 20 0 l 145 0 l 234 263 l 600 263 l 687 0 m 386 719 l 418 831 l 450 722 l 566 368 l 269 368 l 386 719 m 220 1113 b 297 1037 220 1069 254 1037 b 376 1113 343 1037 376 1069 b 297 1191 376 1158 343 1191 b 220 1113 254 1191 220 1158 m 470 1113 b 545 1037 470 1069 502 1037 b 626 1113 591 1037 626 1069 b 545 1191 626 1158 591 1191 b 470 1113 502 1191 470 1158 "},"‰":{"x_min":100.4375,"x_max":1626.828125,"ha":1726,"o":"m 100 794 b 306 595 100 675 186 595 b 511 794 418 595 511 675 b 306 993 511 913 425 993 b 100 794 186 993 100 913 m 206 794 b 306 909 206 869 249 909 b 407 794 364 909 407 869 b 306 680 407 720 364 680 b 206 794 249 680 206 720 m 1006 972 l 894 972 l 206 0 l 318 0 l 1006 972 m 706 177 b 911 -20 706 58 792 -20 b 1117 177 1024 -20 1117 58 b 911 376 1117 297 1031 376 b 706 177 792 376 706 297 m 811 177 b 911 293 811 252 854 293 b 1012 177 969 293 1012 252 b 911 63 1012 104 969 63 b 811 177 854 63 811 104 m 1215 177 b 1421 -20 1215 58 1301 -20 b 1626 177 1533 -20 1626 58 b 1421 376 1626 297 1540 376 b 1215 177 1301 376 1215 297 m 1321 177 b 1421 293 1321 252 1364 293 b 1522 177 1479 293 1522 252 b 1421 63 1522 104 1479 63 b 1321 177 1364 63 1321 104 "},"N":{"x_min":125,"x_max":812.5,"ha":938,"o":"m 125 972 l 125 0 l 243 0 l 243 790 l 308 643 l 687 0 l 812 0 l 812 972 l 694 972 l 694 187 l 625 341 l 251 972 l 125 972 "},"—":{"x_min":51.390625,"x_max":843.0625,"ha":894,"o":"m 51 312 l 843 312 l 843 416 l 51 416 l 51 312 "},"2":{"x_min":72.984375,"x_max":638.890625,"ha":697,"o":"m 87 0 l 638 0 l 638 104 l 250 104 b 595 533 411 204 595 366 b 344 770 595 677 498 770 b 73 498 201 770 62 668 l 184 505 b 338 666 190 612 258 666 b 470 516 427 666 470 615 b 73 73 470 347 191 168 l 87 0 "},"⁄":{"x_min":37.5,"x_max":823.609375,"ha":868,"o":"m 823 972 l 719 972 l 37 0 l 143 0 l 823 972 "},"ü":{"x_min":86.109375,"x_max":686.109375,"ha":724,"o":"m 595 688 l 477 639 l 477 207 b 330 76 477 146 429 76 b 204 228 251 76 204 125 l 204 688 l 86 639 l 86 206 b 298 -20 86 57 175 -20 b 488 83 398 -20 456 26 l 491 83 b 686 0 520 -32 650 -16 l 686 83 b 595 160 626 83 595 90 l 595 688 m 141 894 b 218 818 141 850 175 818 b 297 894 263 818 297 850 b 218 972 297 939 263 972 b 141 894 175 972 141 939 m 391 894 b 466 818 391 850 423 818 b 547 894 512 818 547 850 b 466 972 547 939 512 972 b 391 894 423 972 391 939 "},"Ó":{"x_min":90.28125,"x_max":770.828125,"ha":861,"o":"m 505 1222 l 377 1041 l 479 1041 l 630 1222 l 505 1222 m 430 83 b 219 301 304 83 223 165 b 219 673 215 436 216 566 b 430 888 223 809 304 888 b 641 673 556 888 637 809 b 641 301 644 566 645 436 b 430 83 637 165 556 83 m 430 -20 b 766 300 626 -20 758 105 b 766 676 772 427 772 555 b 430 993 758 869 627 993 b 94 676 234 993 102 869 b 94 300 88 555 88 427 b 430 -20 102 105 234 -20 "},"˜":{"x_min":121.453125,"x_max":537.375,"ha":644,"o":"m 419 818 b 536 972 512 818 544 890 l 462 972 b 423 905 462 933 452 905 b 237 970 383 905 304 970 b 122 818 155 970 115 897 l 200 818 b 241 879 200 851 212 879 b 419 818 286 879 356 818 "},"ˇ":{"x_min":97.21875,"x_max":504.171875,"ha":601,"o":"m 338 750 l 504 965 l 395 965 l 302 836 l 205 965 l 97 965 l 265 750 l 338 750 "},"Ÿ":{"x_min":-27.78125,"x_max":730.5625,"ha":710,"o":"m 413 390 l 730 972 l 595 972 l 375 541 l 354 490 l 333 541 l 108 972 l -27 972 l 288 390 l 288 0 l 413 0 l 413 390 m 159 1112 b 236 1036 159 1068 193 1036 b 315 1112 281 1036 315 1068 b 236 1190 315 1156 281 1190 b 159 1112 193 1190 159 1156 m 409 1112 b 484 1036 409 1068 441 1036 b 565 1112 530 1036 565 1068 b 484 1190 565 1156 530 1190 b 409 1112 441 1190 409 1156 "},"€":{"x_min":37.5,"x_max":764.1875,"ha":824,"o":"m 587 541 l 601 631 l 290 631 b 291 672 290 645 290 658 b 480 888 297 812 373 888 b 648 715 591 888 647 812 l 759 722 b 480 993 766 884 651 993 b 166 672 315 993 175 891 b 165 631 165 659 165 645 l 58 631 l 37 541 l 163 541 b 163 416 162 500 162 458 l 58 416 l 37 326 l 165 326 b 166 291 165 313 165 302 b 480 -20 173 88 305 -20 b 763 256 656 -20 770 84 l 652 263 b 480 83 648 148 586 83 b 291 293 373 83 295 161 b 290 326 291 304 290 315 l 559 326 l 573 416 l 288 416 b 288 541 287 459 287 501 l 587 541 "},"ß":{"x_min":120.828125,"x_max":723.265625,"ha":789,"o":"m 340 4 b 462 -13 379 -8 425 -13 b 722 208 618 -13 715 63 b 722 312 723 251 723 281 b 473 541 718 495 594 548 b 601 638 526 583 569 612 b 695 781 670 695 695 719 b 422 1041 695 970 558 1041 b 120 734 273 1041 120 938 l 120 0 l 238 0 l 238 747 b 419 944 238 877 330 944 b 579 784 504 944 579 897 b 534 687 579 740 565 715 b 380 550 475 631 420 581 l 387 462 b 450 465 404 463 433 465 b 604 312 544 465 601 430 b 604 208 604 279 605 243 b 447 76 600 129 555 76 b 341 90 411 76 368 80 l 340 4 "},"Ω":{"x_min":51.390625,"x_max":850,"ha":901,"o":"m 669 97 b 797 322 738 119 790 205 b 797 652 804 443 800 529 b 452 993 791 875 637 993 b 104 652 268 993 111 875 b 104 322 101 531 98 450 b 226 97 109 198 168 112 l 51 97 l 58 0 l 405 0 l 405 97 b 229 323 295 97 234 173 b 229 648 225 451 226 538 b 452 888 231 812 333 888 b 672 648 570 888 668 813 b 672 323 676 515 676 441 b 501 97 666 162 608 100 l 501 0 l 843 0 l 850 97 l 669 97 "},"s":{"x_min":72.234375,"x_max":550.015625,"ha":615,"o":"m 530 483 b 319 694 544 594 462 694 b 90 491 190 694 90 613 b 283 286 90 369 181 320 b 431 166 380 252 431 225 b 319 76 431 106 384 76 b 176 201 234 76 184 133 l 72 194 b 319 -20 73 75 169 -20 b 550 176 461 -20 550 66 b 337 387 550 308 437 348 b 208 504 268 413 208 440 b 315 597 208 561 255 597 b 426 476 384 597 426 551 l 530 483 "},"?":{"x_min":44.921875,"x_max":565.28125,"ha":617,"o":"m 351 243 l 351 291 b 427 480 351 370 354 397 b 565 751 504 566 565 643 b 318 993 565 895 452 993 b 45 708 150 993 33 872 l 156 715 b 313 888 159 825 216 888 b 440 745 388 888 440 836 b 340 545 440 661 397 615 b 252 281 258 445 245 405 l 255 243 l 351 243 m 218 63 b 304 -20 218 15 255 -20 b 393 63 354 -20 393 15 b 304 152 393 113 354 152 b 218 63 255 152 218 113 "},"c":{"x_min":79.859375,"x_max":579.4375,"ha":625,"o":"m 347 -20 b 579 194 502 -20 584 84 l 481 201 b 347 76 472 131 430 76 b 200 243 259 76 204 127 b 200 444 197 316 197 358 b 341 597 204 545 261 597 b 475 479 411 597 470 562 l 579 486 b 341 694 583 611 491 694 b 81 444 195 694 87 608 b 81 222 79 363 79 312 b 347 -20 86 59 198 -20 "},"₆":{"x_min":66.484375,"x_max":461.109375,"ha":519,"o":"m 72 250 b 72 31 63 181 65 94 b 270 -152 84 -83 169 -152 b 461 37 381 -152 461 -76 b 297 205 461 148 383 205 b 158 131 205 205 162 141 b 162 250 158 172 156 212 b 265 347 170 308 205 347 b 350 265 320 347 350 313 l 433 272 b 265 423 436 380 350 423 b 72 250 163 423 84 358 m 161 33 b 276 136 161 88 215 136 b 370 30 333 136 370 97 b 270 -76 370 -36 329 -76 b 161 33 204 -76 161 -23 "},"¶":{"x_min":65.28125,"x_max":656.953125,"ha":750,"o":"m 359 833 l 455 833 l 455 83 l 359 83 l 359 0 l 656 0 l 656 83 l 559 83 l 559 833 l 656 833 l 656 916 l 359 916 l 359 833 m 351 695 l 316 695 b 65 472 150 695 65 591 b 316 247 65 354 150 247 l 351 247 l 351 695 "},"•":{"x_min":100,"x_max":354.171875,"ha":454,"o":"m 100 415 b 223 291 100 345 154 291 b 354 415 298 291 354 345 b 223 545 354 490 298 545 b 100 415 154 545 100 490 "},"(":{"x_min":100,"x_max":397.21875,"ha":483,"o":"m 395 -160 b 204 410 286 -14 204 187 b 397 999 204 637 286 852 l 322 1044 b 100 407 176 855 100 621 b 322 -211 100 187 180 -40 l 395 -160 "},"◊":{"x_min":65.28125,"x_max":727.78125,"ha":793,"o":"m 438 0 l 727 451 l 438 916 l 355 916 l 65 451 l 355 0 l 438 0 m 190 451 l 397 802 l 602 451 l 397 102 l 190 451 "},":":{"x_min":61.109375,"x_max":241.671875,"ha":306,"o":"m 61 68 b 150 -20 61 18 98 -20 b 241 68 202 -20 241 18 b 150 159 241 119 202 159 b 61 68 98 159 61 119 m 61 519 b 150 430 61 469 98 430 b 241 519 202 430 241 469 b 150 611 241 570 202 611 b 61 519 98 611 61 570 "},"⁹":{"x_min":65.28125,"x_max":455.25,"ha":514,"o":"m 450 701 b 450 919 458 769 455 856 b 255 1104 438 1034 358 1104 b 65 911 144 1104 65 1019 b 231 736 65 800 145 736 b 363 811 333 736 362 808 b 359 701 363 775 363 738 b 258 604 352 643 316 604 b 154 693 201 604 154 637 l 70 686 b 258 527 70 594 148 527 b 450 701 366 527 437 591 m 361 911 b 252 805 361 855 313 805 b 155 918 195 805 155 851 b 255 1027 155 984 197 1027 b 361 911 322 1027 361 968 "},"Û":{"x_min":118.828125,"x_max":777,"ha":896,"o":"m 448 -21 b 776 308 638 -21 775 97 b 776 972 777 466 776 972 l 651 972 b 651 308 651 972 652 431 b 448 83 650 163 575 83 b 244 308 322 83 245 163 b 244 972 243 431 244 972 l 119 972 b 119 308 119 972 118 466 b 448 -21 120 97 258 -21 m 431 1222 l 272 1041 l 372 1041 l 458 1137 l 543 1041 l 648 1041 l 491 1222 l 431 1222 "},"V":{"x_min":6.9375,"x_max":758.328125,"ha":765,"o":"m 451 0 l 758 972 l 623 972 l 387 143 l 143 972 l 6 972 l 315 0 l 451 0 "},"@":{"x_min":100,"x_max":1223.609375,"ha":1331,"o":"m 509 319 b 543 493 516 391 526 423 b 704 638 566 594 627 638 b 794 619 765 638 794 619 l 727 269 b 597 159 718 218 673 159 b 509 319 525 159 498 204 m 833 238 l 911 669 b 706 729 852 705 786 729 b 431 493 576 729 473 665 b 398 319 415 423 406 394 b 559 69 379 143 459 69 b 727 179 677 69 727 179 b 920 27 740 75 819 27 b 1223 472 1076 27 1223 173 b 712 993 1223 766 1045 993 b 100 319 351 993 100 691 b 670 -237 100 -70 355 -237 b 955 -159 877 -237 955 -159 l 923 -90 b 670 -147 923 -90 837 -147 b 204 319 425 -147 204 -18 b 712 902 204 658 431 902 b 1119 473 1011 902 1119 704 b 920 118 1119 233 1025 118 b 833 238 850 118 819 159 "},"¾":{"x_min":101.5,"x_max":1133.484375,"ha":1233,"o":"m 391 588 b 294 486 391 525 354 486 b 184 583 230 486 187 522 l 101 576 b 294 409 100 484 173 409 b 489 591 402 409 489 475 b 326 740 489 701 400 744 l 477 906 l 470 972 l 114 972 l 114 895 l 368 895 l 226 727 l 243 680 b 289 687 257 686 273 687 b 391 588 341 687 391 656 m 947 129 l 947 0 l 1037 0 l 1037 129 l 1133 129 l 1133 205 l 1037 205 l 1037 548 l 936 555 l 682 186 l 695 129 l 947 129 m 779 205 l 947 455 l 947 205 l 779 205 m 1047 972 l 943 972 l 261 0 l 366 0 l 1047 972 "},"i":{"x_min":72.21875,"x_max":301.390625,"ha":339,"o":"m 211 687 l 93 638 l 93 133 b 301 0 93 -5 201 -27 l 301 83 b 211 175 236 83 211 105 l 211 687 m 72 912 b 150 833 72 866 105 833 b 231 912 197 833 231 866 b 150 993 231 958 197 993 b 72 912 105 993 72 958 "},"⁶":{"x_min":66.484375,"x_max":461.109375,"ha":519,"o":"m 72 930 b 72 712 63 862 65 775 b 270 527 84 597 169 527 b 461 718 381 527 461 604 b 297 886 461 829 383 886 b 158 812 205 886 162 822 b 162 930 158 852 156 893 b 265 1027 170 988 205 1027 b 350 945 320 1027 350 994 l 433 952 b 265 1104 436 1061 350 1104 b 72 930 163 1104 84 1038 m 161 713 b 276 816 161 769 215 816 b 370 711 333 816 370 777 b 270 604 370 644 329 604 b 161 713 204 604 161 656 "},"①":{"x_min":65.28125,"x_max":1002.78125,"ha":1068,"o":"m 65 458 b 534 -20 65 201 272 -20 b 1002 458 795 -20 1002 201 b 534 937 1002 715 795 937 b 65 458 272 937 65 715 m 594 279 l 697 272 l 697 201 l 391 201 l 391 272 l 497 279 l 497 666 l 400 658 l 391 722 l 551 756 l 594 750 l 594 279 "},"≤":{"x_min":65.28125,"x_max":626.390625,"ha":699,"o":"m 65 0 l 604 0 l 604 89 l 65 89 l 65 0 m 93 480 l 576 144 l 626 219 l 231 498 l 231 512 l 625 782 l 577 858 l 93 513 l 93 480 "},"⅓":{"x_min":100.40625,"x_max":1178.03125,"ha":1278,"o":"m 303 972 l 260 979 l 100 944 l 108 880 l 205 888 l 205 501 l 100 494 l 100 423 l 405 423 l 405 494 l 303 501 l 303 972 m 1080 165 b 983 62 1080 101 1043 62 b 873 159 919 62 876 98 l 790 152 b 983 -14 789 60 862 -14 b 1178 167 1091 -14 1178 51 b 1015 316 1178 277 1089 320 l 1166 483 l 1159 548 l 803 548 l 803 472 l 1057 472 l 915 304 l 932 256 b 978 263 946 262 962 263 b 1080 165 1030 263 1080 233 m 1003 972 l 898 972 l 217 0 l 322 0 l 1003 972 "},"m":{"x_min":44.4375,"x_max":1012.5,"ha":1106,"o":"m 127 0 l 245 0 l 245 434 b 395 597 245 530 309 597 b 511 451 468 597 511 558 l 511 0 l 629 0 l 629 436 b 779 597 629 527 690 597 b 894 452 865 597 894 538 l 894 0 l 1012 0 l 1012 476 b 815 694 1012 618 926 694 b 606 568 718 694 640 638 l 604 568 b 429 694 580 652 513 694 b 237 580 354 694 276 654 l 236 580 b 112 680 223 650 170 680 b 44 666 87 680 66 676 l 44 590 b 127 526 98 590 127 581 l 127 0 "},"ﬃ":{"x_min":23.609375,"x_max":1126.390625,"ha":1164,"o":"m 238 773 b 366 944 238 902 286 944 b 475 918 422 944 475 918 l 493 1000 b 344 1041 466 1020 415 1041 b 120 780 225 1041 120 961 l 120 673 l 23 673 l 23 590 l 120 590 l 120 0 l 238 0 l 238 590 l 530 590 l 530 0 l 648 0 l 648 590 l 918 590 l 918 133 b 1126 0 918 -5 1026 -27 l 1126 83 b 1036 175 1061 83 1036 105 l 1036 673 l 648 673 l 648 773 b 750 937 648 895 684 937 b 837 918 805 937 837 918 l 875 997 b 743 1041 851 1016 805 1041 b 530 780 626 1041 530 961 l 530 673 l 238 673 l 238 773 m 897 919 b 975 840 897 873 930 840 b 1056 919 1022 840 1056 873 b 975 1000 1056 965 1022 1000 b 897 919 930 1000 897 965 "},"ž":{"x_min":58.328125,"x_max":550,"ha":594,"o":"m 550 97 l 200 97 l 530 604 l 523 673 l 63 673 l 63 576 l 384 576 l 58 69 l 65 0 l 550 0 l 550 97 m 337 750 l 502 965 l 394 965 l 301 836 l 204 965 l 95 965 l 263 750 l 337 750 "},"⁵":{"x_min":57.90625,"x_max":442.625,"ha":488,"o":"m 442 717 b 273 894 442 831 369 894 b 167 852 210 894 167 852 l 184 1013 l 405 1013 l 405 1090 l 114 1090 l 81 792 l 155 785 b 244 824 178 812 212 824 b 345 715 307 824 345 787 b 246 603 345 647 307 603 b 141 701 185 603 141 638 l 57 694 b 246 527 57 581 146 527 b 442 717 356 527 442 597 "},"á":{"x_min":72,"x_max":644.34375,"ha":682,"o":"m 644 83 b 554 159 584 83 554 90 l 554 455 b 330 694 554 616 470 694 b 94 470 195 694 78 609 l 198 479 b 323 597 198 551 244 597 b 436 448 409 597 436 543 l 436 381 b 210 326 438 383 297 351 b 72 172 106 295 72 265 b 262 -20 72 52 158 -20 b 447 83 354 -20 409 20 l 451 83 b 644 0 473 -40 615 -16 l 644 83 m 258 266 b 436 313 317 286 436 313 l 436 225 b 304 69 436 138 384 69 b 190 186 237 69 190 112 b 258 266 190 227 203 248 m 404 972 l 251 770 l 359 770 l 542 972 l 404 972 "},"×":{"x_min":97.21875,"x_max":763.890625,"ha":861,"o":"m 690 676 l 429 415 l 173 674 l 100 596 l 355 340 l 97 81 l 170 7 l 429 265 l 690 7 l 763 83 l 504 341 l 763 599 l 690 676 "},"K":{"x_min":125,"x_max":788.890625,"ha":761,"o":"m 250 972 l 125 972 l 125 0 l 250 0 l 250 972 m 256 494 l 643 0 l 788 0 b 397 506 741 61 440 455 l 762 972 l 619 972 l 256 494 "},"7":{"x_min":16.671875,"x_max":623.609375,"ha":661,"o":"m 602 750 l 16 750 l 16 645 l 490 645 l 91 -208 l 223 -208 l 623 668 l 602 750 "},"⑥":{"x_min":65.28125,"x_max":1002.78125,"ha":1068,"o":"m 65 458 b 534 -20 65 202 272 -20 b 1002 458 795 -20 1002 202 b 534 937 1002 713 795 937 b 65 458 272 937 65 713 m 344 590 b 537 763 356 698 436 763 b 705 612 622 763 708 720 l 622 605 b 537 687 622 654 593 687 b 434 590 477 687 443 648 b 430 472 429 552 430 512 b 569 545 434 479 476 545 b 733 377 655 545 733 488 b 543 187 733 263 654 187 b 344 372 441 187 356 256 b 344 590 337 434 336 522 m 433 373 b 543 263 433 316 476 263 b 643 370 601 263 643 304 b 548 476 643 437 605 476 b 433 373 487 476 433 429 "},"¨":{"x_min":106.9375,"x_max":512.5,"ha":619,"o":"m 106 894 b 183 818 106 850 140 818 b 262 894 229 818 262 850 b 183 972 262 938 229 972 b 106 894 140 972 106 938 m 356 894 b 431 818 356 850 388 818 b 512 894 477 818 512 850 b 431 972 512 938 477 972 b 356 894 388 972 356 938 "},"⁰":{"x_min":79.515625,"x_max":485.765625,"ha":565,"o":"m 484 729 b 484 905 486 798 486 848 b 283 1104 481 1026 398 1104 b 80 905 166 1104 81 1026 b 80 729 79 848 79 798 b 280 527 81 606 163 527 b 484 729 395 527 481 606 m 387 905 b 387 729 388 848 388 786 b 283 604 384 648 341 604 b 177 729 225 604 179 648 b 177 905 176 786 176 848 b 283 1027 179 981 219 1027 b 387 905 347 1027 384 981 "},"Y":{"x_min":-27.78125,"x_max":730.5625,"ha":710,"o":"m 413 390 l 730 972 l 595 972 l 375 541 l 354 490 l 333 541 l 108 972 l -27 972 l 288 390 l 288 0 l 413 0 l 413 390 "},"E":{"x_min":125,"x_max":652.78125,"ha":722,"o":"m 125 0 l 652 0 l 652 104 l 250 104 l 250 444 l 612 444 l 612 548 l 250 548 l 250 868 l 652 868 l 652 972 l 125 972 l 125 0 "},"Ô":{"x_min":90.28125,"x_max":770.828125,"ha":861,"o":"m 411 1222 l 251 1041 l 351 1041 l 437 1137 l 522 1041 l 627 1041 l 470 1222 l 411 1222 m 430 83 b 219 301 304 83 223 165 b 219 673 215 436 216 566 b 430 888 223 809 304 888 b 641 673 556 888 637 809 b 641 301 644 566 645 436 b 430 83 637 165 556 83 m 430 -20 b 766 300 626 -20 758 105 b 766 676 772 427 772 555 b 430 993 758 869 627 993 b 94 676 234 993 102 869 b 94 300 88 555 88 427 b 430 -20 102 105 234 -20 "},"Ï":{"x_min":-8.328125,"x_max":397.21875,"ha":375,"o":"m 250 972 l 125 972 l 125 0 l 250 0 l 250 972 m -8 1113 b 68 1037 -8 1069 25 1037 b 147 1113 113 1037 147 1069 b 68 1191 147 1158 113 1191 b -8 1113 25 1191 -8 1158 m 241 1113 b 316 1037 241 1069 273 1037 b 397 1113 362 1037 397 1069 b 316 1191 397 1158 362 1191 b 241 1113 273 1191 241 1158 "},"‹":{"x_min":58.328125,"x_max":375,"ha":406,"o":"m 187 345 l 187 353 l 373 519 l 318 590 l 58 353 l 58 344 l 313 97 l 375 166 l 187 345 "},"₂":{"x_min":70.828125,"x_max":466.671875,"ha":525,"o":"m 77 -138 l 466 -138 l 466 -62 l 184 -62 b 306 29 190 -58 247 -18 b 438 251 383 90 438 161 b 256 423 438 355 368 423 b 72 229 133 423 61 334 l 155 236 b 256 347 154 306 195 347 b 341 250 308 347 341 313 b 237 68 341 175 297 122 b 70 -70 173 9 119 -30 l 77 -138 "},"±":{"x_min":100,"x_max":702.78125,"ha":803,"o":"m 131 83 l 131 -20 l 659 -20 l 659 83 l 131 83 m 448 152 l 448 415 l 702 415 l 702 519 l 448 519 l 448 777 l 344 777 l 344 519 l 100 519 l 100 415 l 344 415 l 344 152 l 448 152 "},"ì":{"x_min":-89,"x_max":301.28125,"ha":339,"o":"m 211 688 l 92 639 l 92 133 b 301 0 92 -5 201 -27 l 301 83 b 211 175 236 83 211 106 l 211 688 m -89 972 l 92 771 l 202 771 l 49 972 l -89 972 "},"|":{"x_min":127.78125,"x_max":225,"ha":353,"o":"m 225 1041 l 127 1041 l 127 -347 l 225 -347 l 225 1041 "},"§":{"x_min":80.546875,"x_max":584.71875,"ha":650,"o":"m 215 550 b 81 402 143 527 81 477 b 436 62 81 173 436 215 b 322 -41 436 -2 391 -41 b 191 83 248 -41 191 5 l 80 76 b 322 -138 79 -43 176 -138 b 561 63 459 -138 561 -56 b 200 413 561 294 200 255 b 280 513 200 484 250 509 l 215 550 m 437 300 b 584 459 508 313 584 368 b 234 797 584 673 234 640 b 340 895 234 852 277 895 b 445 777 408 895 445 848 l 556 784 b 341 993 570 904 470 993 b 109 790 225 993 109 923 b 465 431 109 550 465 588 b 372 331 465 366 408 336 l 437 300 "},"q":{"x_min":79.859375,"x_max":619.4375,"ha":719,"o":"m 501 247 b 347 76 501 134 438 76 b 200 229 262 76 202 126 b 200 413 197 309 197 333 b 372 597 204 543 281 597 b 501 573 415 597 468 587 l 501 247 m 619 638 b 372 694 548 673 452 694 b 81 426 212 694 87 602 b 81 215 79 331 79 302 b 309 -20 87 81 179 -20 b 500 84 418 -20 470 36 l 501 84 l 501 -347 l 619 -347 l 619 638 "},"b":{"x_min":113.890625,"x_max":653.46875,"ha":733,"o":"m 231 462 b 398 597 231 523 306 597 b 533 461 468 597 530 554 b 533 230 536 373 537 325 b 368 76 529 122 459 76 b 231 100 319 76 268 85 l 231 462 m 113 46 b 379 -20 183 4 300 -20 b 651 230 523 -20 647 79 b 651 462 654 321 654 368 b 431 694 645 615 554 694 b 233 583 338 694 266 637 l 231 583 l 231 1042 l 113 993 l 113 46 "},"ﬂ":{"x_min":23.609375,"x_max":730.5625,"ha":775,"o":"m 730 83 b 640 173 665 83 640 104 l 640 1042 l 525 994 b 369 1042 495 1017 441 1042 b 120 773 243 1042 120 954 l 120 673 l 23 673 l 23 590 l 120 590 l 120 0 l 238 0 l 238 590 l 405 590 l 405 673 l 238 673 l 238 773 b 386 944 241 882 287 944 b 522 905 480 944 522 905 l 522 132 b 730 0 522 -6 637 -27 l 730 83 "},"☞":{"x_min":65.8125,"x_max":1826.234375,"ha":1857,"o":"m 1752 720 b 1155 744 1412 744 1155 744 b 877 848 1062 795 981 848 b 375 654 673 848 476 654 b 97 662 333 654 97 662 b 83 63 65 662 52 63 l 415 72 b 730 -1 501 -45 730 -1 b 1177 130 930 -20 1187 -75 b 1291 315 1280 152 1311 243 b 1311 527 1388 379 1369 506 b 1752 548 1311 527 1690 540 b 1752 720 1852 561 1848 712 m 129 336 b 144 612 127 363 125 612 b 370 605 161 612 287 608 b 441 619 404 605 441 619 b 445 395 395 551 405 443 l 369 238 b 129 336 316 134 141 91 m 884 631 b 630 409 730 631 801 458 l 636 372 b 577 47 740 311 702 47 b 434 204 505 47 434 106 b 554 366 434 327 509 359 b 552 404 558 366 552 404 b 540 666 431 413 452 608 b 869 801 676 758 780 801 b 1136 701 959 801 990 784 b 1329 601 1220 662 1329 601 b 1236 536 1337 600 1295 536 b 884 631 1097 536 1034 631 m 1044 29 b 805 81 1008 33 858 66 b 831 176 756 97 781 187 b 1104 134 886 165 1104 134 b 1044 29 1144 129 1131 19 m 1173 187 b 838 240 1069 187 915 223 b 848 347 788 251 798 347 b 1202 305 890 347 1131 316 b 1173 187 1272 294 1245 187 m 1247 358 b 865 404 1216 356 894 397 b 891 516 808 419 823 516 b 1266 486 965 516 1233 495 b 1247 358 1330 468 1304 359 m 1736 593 b 1569 584 1669 587 1611 584 b 1238 701 1431 584 1398 616 b 1734 679 1238 701 1587 687 b 1736 593 1784 676 1790 597 "},"®":{"x_min":79.171875,"x_max":1093.0625,"ha":1172,"o":"m 79 486 b 586 -20 79 205 305 -20 b 1093 486 866 -20 1093 205 b 586 993 1093 766 866 993 b 79 486 305 993 79 766 m 159 486 b 586 923 159 727 344 923 b 1011 486 827 923 1011 727 b 586 48 1011 244 827 48 b 159 486 344 48 159 244 m 806 606 b 615 784 806 705 738 784 l 393 784 l 393 198 l 490 198 l 490 425 l 594 425 l 704 198 l 809 198 l 698 418 l 679 440 b 806 606 748 458 806 522 m 490 701 l 598 701 b 709 604 670 701 709 666 b 598 501 709 541 669 501 l 490 501 l 490 701 "},"L":{"x_min":125,"x_max":644.4375,"ha":651,"o":"m 125 0 l 644 0 l 644 104 l 250 104 l 250 972 l 125 972 l 125 0 "},"↘":{"x_min":51.390625,"x_max":756.953125,"ha":801,"o":"m 662 221 l 623 280 l 122 826 l 51 757 l 568 199 l 618 162 l 237 162 l 236 76 l 745 76 l 756 87 l 756 635 l 662 635 l 662 221 "}," ":{"x_min":0,"x_max":0,"ha":403},"②":{"x_min":65.28125,"x_max":1002.78125,"ha":1068,"o":"m 65 458 b 534 -20 65 202 272 -20 b 1002 458 795 -20 1002 202 b 534 937 1002 713 795 937 b 65 458 272 937 65 713 m 341 269 b 508 408 390 309 444 350 b 612 590 568 462 612 515 b 527 687 612 654 579 687 b 426 576 466 687 425 647 l 343 569 b 527 763 331 675 404 763 b 709 591 638 763 709 695 b 577 369 709 501 654 430 b 455 277 516 320 458 279 l 737 277 l 737 201 l 348 201 l 341 269 "},"∑":{"x_min":34.71875,"x_max":669.453125,"ha":711,"o":"m 48 0 l 669 0 l 669 104 l 180 104 l 500 491 l 202 868 l 640 868 l 640 972 l 62 972 l 48 877 l 361 484 l 34 84 l 48 0 "},"À":{"x_min":20.828125,"x_max":819.453125,"ha":840,"o":"m 687 0 l 819 0 l 479 972 l 340 972 l 351 936 l 20 0 l 145 0 l 234 263 l 600 263 l 687 0 m 386 719 l 418 831 l 450 722 l 566 368 l 269 368 l 386 719 m 186 1222 l 343 1041 l 450 1041 l 311 1222 l 186 1222 "},"+":{"x_min":51.390625,"x_max":737.5,"ha":789,"o":"m 441 2 l 441 312 l 737 312 l 737 416 l 441 416 l 441 737 l 330 737 l 330 416 l 51 416 l 51 312 l 330 312 l 330 2 l 441 2 "},"ʰ":{"x_min":72.21875,"x_max":440.28125,"ha":492,"o":"m 162 1181 l 72 1150 l 72 542 l 162 542 l 162 837 b 272 917 166 871 206 917 b 350 826 322 917 350 890 l 350 542 l 440 542 l 440 833 b 295 986 440 928 387 986 b 162 917 238 986 187 953 l 162 1181 "},"½":{"x_min":100.40625,"x_max":1150.40625,"ha":1250,"o":"m 1003 972 l 899 972 l 217 0 l 322 0 l 1003 972 m 761 0 l 1150 0 l 1150 76 l 868 76 b 990 167 874 80 930 120 b 1122 390 1067 229 1122 299 b 940 562 1122 494 1051 562 b 755 367 817 562 744 473 l 839 374 b 940 485 837 445 879 485 b 1025 388 992 485 1025 452 b 921 206 1025 313 980 260 b 754 67 857 148 803 108 l 761 0 m 303 972 l 260 979 l 100 944 l 108 880 l 205 888 l 205 501 l 100 494 l 100 423 l 405 423 l 405 494 l 303 501 l 303 972 "},"Ë":{"x_min":125,"x_max":652.78125,"ha":722,"o":"m 125 0 l 652 0 l 652 104 l 250 104 l 250 444 l 612 444 l 612 548 l 250 548 l 250 868 l 652 868 l 652 972 l 125 972 l 125 0 m 190 1113 b 266 1037 190 1069 223 1037 b 345 1113 312 1037 345 1069 b 266 1191 345 1158 312 1191 b 190 1113 223 1191 190 1158 m 440 1113 b 515 1037 440 1069 472 1037 b 595 1113 561 1037 595 1069 b 515 1191 595 1158 561 1191 b 440 1113 472 1191 440 1158 "},"'":{"x_min":65.28125,"x_max":188.890625,"ha":254,"o":"m 65 959 b 83 639 66 872 83 639 l 162 639 b 188 1007 162 639 184 915 l 65 959 "},"Š":{"x_min":76.390625,"x_max":709.71875,"ha":779,"o":"m 584 230 b 402 83 584 131 506 83 b 187 272 286 83 201 161 l 76 265 b 398 -20 87 76 227 -20 b 709 254 573 -20 709 87 b 423 544 709 427 554 488 b 231 740 313 591 231 631 b 400 888 231 838 306 888 b 572 709 512 888 572 827 l 683 716 b 400 993 698 894 573 993 b 106 720 233 993 106 879 b 372 436 106 550 241 490 b 584 230 479 391 584 351 m 440 1041 l 588 1222 l 486 1222 l 404 1113 l 319 1222 l 216 1222 l 366 1041 l 440 1041 "},"˛":{"x_min":141.671875,"x_max":454.171875,"ha":589,"o":"m 454 69 b 250 -69 448 69 336 0 b 141 -241 181 -125 141 -165 b 356 -347 141 -358 279 -375 l 356 -263 b 266 -206 301 -263 266 -251 b 315 -113 266 -176 275 -152 b 454 0 366 -63 454 0 l 454 69 "},"ð":{"x_min":86.859375,"x_max":644.15625,"ha":731,"o":"m 644 1042 l 520 1042 l 405 953 b 237 1042 355 990 299 1019 l 134 997 b 335 894 209 976 278 942 l 138 750 l 253 750 l 384 847 b 506 567 451 775 494 680 b 327 660 474 623 409 660 b 89 423 208 660 96 572 b 89 222 85 337 85 329 b 362 -20 95 71 214 -20 b 631 222 506 -20 624 68 b 631 471 635 322 635 383 b 458 908 621 665 559 808 l 644 1042 m 513 228 b 362 76 509 136 449 76 b 208 229 273 76 212 137 b 208 417 205 300 205 330 b 358 562 212 522 277 562 b 513 423 439 562 509 514 b 513 228 516 340 516 294 "},"⁷":{"x_min":23.609375,"x_max":405.5625,"ha":457,"o":"m 400 1090 l 23 1090 l 23 1013 l 302 1013 l 87 541 l 188 541 l 405 1037 l 400 1090 "},"ı":{"x_min":93.0625,"x_max":301.390625,"ha":339,"o":"m 211 688 l 93 639 l 93 133 b 301 0 93 -5 201 -27 l 301 83 b 211 175 236 83 211 106 l 211 688 "},"ä":{"x_min":72,"x_max":644.34375,"ha":682,"o":"m 644 83 b 554 159 584 83 554 90 l 554 455 b 330 694 554 616 470 694 b 94 470 195 694 78 609 l 198 479 b 323 597 198 551 244 597 b 436 448 409 597 436 543 l 436 381 b 210 326 438 383 297 351 b 72 172 106 295 72 265 b 262 -20 72 52 158 -20 b 447 83 354 -20 409 20 l 451 83 b 644 0 473 -40 615 -16 l 644 83 m 258 266 b 436 313 317 286 436 313 l 436 225 b 304 69 436 138 384 69 b 190 186 237 69 190 112 b 258 266 190 227 203 248 m 110 894 b 187 818 110 850 144 818 b 266 894 233 818 266 850 b 187 972 266 938 233 972 b 110 894 144 972 110 938 m 360 894 b 436 818 360 850 392 818 b 516 894 481 818 516 850 b 436 972 516 938 481 972 b 360 894 392 972 360 938 "},"¹":{"x_min":65.28125,"x_max":370.828125,"ha":408,"o":"m 268 1090 l 225 1097 l 65 1062 l 73 998 l 170 1006 l 170 619 l 65 612 l 65 541 l 370 541 l 370 612 l 268 619 l 268 1090 "},"£":{"x_min":72.21875,"x_max":745.828125,"ha":825,"o":"m 508 423 l 522 513 l 313 513 b 308 715 311 587 308 659 b 456 888 308 836 369 888 b 605 715 562 888 605 825 l 716 722 b 456 993 727 897 620 993 b 183 708 308 993 183 888 b 188 513 183 655 184 587 l 86 513 l 72 423 l 193 423 b 197 245 194 362 197 301 b 75 69 197 105 75 69 l 86 0 l 731 0 l 745 104 l 347 104 b 201 79 300 104 227 87 b 322 254 234 93 322 144 b 318 423 322 304 319 362 l 508 423 "},"W":{"x_min":34.71875,"x_max":1166.671875,"ha":1201,"o":"m 411 0 l 572 659 l 598 806 l 602 806 l 625 659 l 791 0 l 920 0 l 1166 972 l 1045 972 l 895 333 l 865 156 l 861 156 l 829 333 l 663 972 l 544 972 l 386 333 l 355 156 l 351 156 l 319 333 l 162 972 l 34 972 l 280 0 l 411 0 "},"v":{"x_min":9.71875,"x_max":575,"ha":585,"o":"m 319 227 l 293 120 l 291 120 l 268 227 l 134 673 l 9 673 l 229 0 l 348 0 l 575 673 l 456 673 l 319 227 "},">":{"x_min":86.109375,"x_max":619.4375,"ha":699,"o":"m 619 356 l 141 701 l 87 626 l 480 344 l 480 332 l 86 62 l 136 -12 l 619 323 l 619 356 "},"û":{"x_min":85.96875,"x_max":686.296875,"ha":724,"o":"m 596 688 l 477 639 l 477 207 b 330 76 477 146 429 76 b 204 228 251 76 204 125 l 204 688 l 85 639 l 85 206 b 298 -20 85 57 174 -20 b 489 83 398 -20 457 26 l 491 83 b 686 0 520 -32 650 -16 l 686 83 b 596 160 626 83 596 90 l 596 688 m 315 972 l 147 764 l 255 764 l 351 881 l 445 764 l 557 764 l 388 972 l 315 972 "},"Ð":{"x_min":41.671875,"x_max":778.828125,"ha":840,"o":"m 41 416 l 137 416 l 137 0 b 326 -6 137 0 209 -6 b 773 333 561 -6 759 80 b 773 656 780 456 780 554 b 340 979 755 919 550 979 b 137 972 236 979 137 972 l 137 500 l 41 500 l 41 416 m 648 650 b 648 327 655 540 655 443 b 348 97 637 136 480 97 b 262 100 301 97 262 100 l 262 416 l 416 416 l 416 500 l 262 500 l 262 872 b 354 875 262 872 293 875 b 648 650 522 875 637 811 "},"⑦":{"x_min":65.28125,"x_max":1002.78125,"ha":1068,"o":"m 65 458 b 534 -20 65 202 272 -20 b 1002 458 795 -20 1002 202 b 534 937 1002 713 795 937 b 65 458 272 937 65 713 m 736 697 l 519 201 l 418 201 l 633 673 l 354 673 l 354 750 l 730 750 l 736 697 "},"r":{"x_min":44.4375,"x_max":458.328125,"ha":475,"o":"m 127 0 l 245 0 l 245 398 b 368 583 247 527 272 583 l 440 583 l 458 666 b 387 694 451 679 422 694 b 240 580 301 694 256 643 l 237 580 b 112 680 225 650 170 680 b 44 666 87 680 66 676 l 44 590 b 127 526 98 590 127 581 l 127 0 "},"₇":{"x_min":23.609375,"x_max":405.5625,"ha":457,"o":"m 400 409 l 23 409 l 23 333 l 302 333 l 87 -138 l 188 -138 l 405 356 l 400 409 "},"x":{"x_min":23.609375,"x_max":604.171875,"ha":614,"o":"m 472 0 l 604 0 l 380 344 l 590 673 l 465 673 l 322 434 l 169 673 l 37 673 l 244 352 l 23 0 l 148 0 l 304 259 l 472 0 "},"è":{"x_min":79.984375,"x_max":583.71875,"ha":656,"o":"m 461 338 b 583 465 564 361 583 373 b 347 694 583 602 494 694 b 82 436 179 694 89 579 b 82 229 79 370 79 327 b 347 -20 86 80 183 -20 b 582 194 501 -20 587 84 l 485 201 b 347 76 475 131 433 76 b 199 250 258 76 199 136 l 199 294 b 461 338 199 294 357 316 m 199 413 b 347 597 199 520 243 597 b 465 468 422 597 465 547 b 394 404 465 430 455 418 b 199 370 299 383 199 370 l 199 413 m 104 972 l 286 770 l 396 770 l 243 972 l 104 972 "},"Ø":{"x_min":62.5,"x_max":779.171875,"ha":842,"o":"m 416 -20 b 752 300 612 -20 744 105 b 752 676 758 427 758 555 b 695 858 750 747 729 809 l 779 993 l 688 993 l 643 918 b 416 993 586 966 508 993 b 80 676 220 993 88 869 b 80 300 75 555 75 427 b 141 108 83 225 105 159 l 62 -20 l 152 -20 l 195 50 b 416 -20 252 4 327 -20 m 205 301 b 205 673 201 436 202 566 b 416 888 209 809 290 888 b 580 818 487 888 543 863 l 215 227 b 205 301 209 250 205 275 m 416 83 b 256 148 348 83 294 106 l 619 734 b 627 673 625 716 626 695 b 627 301 630 566 631 436 b 416 83 623 165 543 83 "},"÷":{"x_min":51.390625,"x_max":763.890625,"ha":815,"o":"m 51 312 l 763 312 l 763 416 l 51 416 l 51 312 m 315 88 b 404 0 315 38 352 0 b 495 88 456 0 495 38 b 404 180 495 140 456 180 b 315 88 352 180 315 140 m 315 637 b 404 548 315 587 352 548 b 495 637 456 548 495 587 b 404 729 495 688 456 729 b 315 637 352 729 315 688 "},"μ":{"x_min":86.109375,"x_max":686.109375,"ha":724,"o":"m 477 221 b 330 76 477 160 429 76 b 204 217 251 76 204 114 l 204 688 l 86 639 l 86 -347 l 204 -298 l 204 4 b 298 -20 226 -12 263 -20 b 484 83 390 -20 448 22 b 686 0 516 -23 650 -16 l 686 83 b 595 161 626 83 595 90 l 595 688 l 477 639 l 477 221 "},"h":{"x_min":120.828125,"x_max":661.109375,"ha":747,"o":"m 238 1042 l 120 993 l 120 0 l 238 0 l 238 458 b 409 597 241 519 306 597 b 543 453 493 597 543 555 l 543 0 l 661 0 l 661 467 b 445 694 661 611 575 694 b 240 578 352 694 279 646 l 238 578 l 238 1042 "},".":{"x_min":65.28125,"x_max":245.828125,"ha":311,"o":"m 65 68 b 154 -20 65 18 102 -20 b 245 68 206 -20 245 18 b 154 159 245 119 206 159 b 65 68 102 159 65 119 "},"f":{"x_min":23.609375,"x_max":472.21875,"ha":413,"o":"m 238 773 b 343 937 238 895 273 937 b 434 913 400 937 434 913 l 472 993 b 336 1041 447 1015 401 1041 b 120 780 216 1041 120 961 l 120 673 l 23 673 l 23 590 l 120 590 l 120 0 l 238 0 l 238 590 l 405 590 l 405 673 l 238 673 l 238 773 "},"ʷ":{"x_min":16.671875,"x_max":619.4375,"ha":636,"o":"m 458 697 b 447 643 452 680 447 643 l 445 643 b 434 697 445 643 440 680 l 362 972 l 279 972 l 204 697 b 194 643 200 680 194 643 l 191 643 b 180 697 191 643 184 680 l 112 972 l 16 972 l 147 541 l 234 541 l 298 773 b 315 850 306 802 315 850 l 318 850 b 336 773 318 850 327 802 l 398 541 l 487 541 l 619 972 l 529 972 l 458 697 "},"“":{"x_min":60.09375,"x_max":537.875,"ha":525,"o":"m 504 991 b 287 736 379 968 287 860 b 386 624 287 664 328 624 b 473 710 429 624 473 657 b 383 796 473 782 415 800 b 537 941 383 796 390 899 l 504 991 m 276 991 b 60 736 151 968 60 860 b 158 624 60 664 100 624 b 246 710 201 624 246 657 b 155 796 246 782 187 800 b 310 941 155 796 162 899 l 276 991 "},"A":{"x_min":20.828125,"x_max":819.453125,"ha":840,"o":"m 687 0 l 819 0 l 479 972 l 340 972 l 351 936 l 20 0 l 145 0 l 234 263 l 600 263 l 687 0 m 386 719 l 418 831 l 450 722 l 566 368 l 269 368 l 386 719 "},"O":{"x_min":90.28125,"x_max":770.828125,"ha":861,"o":"m 430 83 b 219 301 304 83 223 165 b 219 673 215 436 216 566 b 430 888 223 809 304 888 b 641 673 556 888 637 809 b 641 301 644 566 645 436 b 430 83 637 165 556 83 m 430 -20 b 766 300 626 -20 758 105 b 766 676 772 427 772 555 b 430 993 758 869 627 993 b 94 676 234 993 102 869 b 94 300 88 555 88 427 b 430 -20 102 105 234 -20 "},"π":{"x_min":51.390625,"x_max":734.71875,"ha":786,"o":"m 630 0 l 630 618 l 734 618 l 734 701 l 51 701 l 51 618 l 155 618 l 155 0 l 266 0 l 266 618 l 519 618 l 519 0 l 630 0 "},"‘":{"x_min":59.71875,"x_max":309.71875,"ha":297,"o":"m 276 991 b 59 736 151 968 59 860 b 158 624 59 664 100 624 b 245 710 201 624 245 657 b 155 796 245 782 187 800 b 309 941 155 796 162 899 l 276 991 "},"3":{"x_min":37.5,"x_max":651.390625,"ha":710,"o":"m 370 354 l 630 666 l 616 750 l 76 750 l 76 645 l 487 645 l 234 326 l 255 262 b 334 270 255 262 284 270 b 526 79 440 270 526 211 b 337 -118 526 -61 437 -118 b 148 34 236 -118 163 -63 l 37 27 b 337 -222 51 -119 169 -222 b 651 81 508 -222 651 -116 b 386 355 651 281 518 355 b 370 354 381 355 375 354 "},"9":{"x_min":72.21875,"x_max":689.328125,"ha":776,"o":"m 72 458 b 352 155 72 251 213 155 b 568 280 450 155 531 200 b 565 95 568 215 568 150 b 379 -118 556 -45 493 -118 b 190 34 262 -118 206 -55 l 79 27 b 379 -222 83 -130 227 -222 b 686 95 545 -222 675 -122 b 686 437 691 202 688 345 b 376 770 679 665 538 770 b 72 458 206 770 72 651 m 376 259 b 197 458 284 259 197 318 b 376 666 197 591 276 666 b 565 451 477 666 559 597 l 565 436 b 376 259 561 340 493 259 "},"⅛":{"x_min":100.4375,"x_max":1151.828125,"ha":1251,"o":"m 303 972 l 260 979 l 100 944 l 108 880 l 205 888 l 205 501 l 100 494 l 100 423 l 405 423 l 405 494 l 303 501 l 303 972 m 957 319 b 871 399 900 319 871 354 b 957 485 871 444 900 485 b 1043 399 1014 485 1043 444 b 957 319 1043 354 1014 319 m 957 62 b 860 154 892 62 860 104 b 957 242 860 204 892 242 b 1054 154 1022 242 1054 204 b 957 62 1054 104 1022 62 m 957 -14 b 1151 154 1083 -14 1151 67 b 1042 284 1151 216 1111 265 b 1140 413 1103 306 1140 356 b 957 562 1140 484 1078 562 b 774 413 836 562 774 484 b 872 284 774 356 811 306 b 762 154 803 265 762 216 b 957 -14 762 67 831 -14 m 994 972 l 890 972 l 208 0 l 314 0 l 994 972 "},"l":{"x_min":100,"x_max":308.328125,"ha":353,"o":"m 308 83 b 218 173 243 83 218 104 l 218 1042 l 100 993 l 100 132 b 308 0 100 -6 215 -27 l 308 83 "},"⅔":{"x_min":100.140625,"x_max":1264.03125,"ha":1364,"o":"m 1094 972 l 990 972 l 308 0 l 414 0 l 1094 972 m 107 423 l 495 423 l 495 500 l 214 500 b 336 591 219 504 276 544 b 468 813 412 652 468 723 b 286 986 468 918 397 986 b 101 791 162 986 90 897 l 184 798 b 286 909 183 869 225 909 b 370 812 337 909 370 876 b 266 630 370 737 326 684 b 100 491 202 572 148 531 l 107 423 m 1166 165 b 1069 62 1166 101 1129 62 b 959 159 1005 62 962 98 l 876 152 b 1069 -13 875 61 948 -13 b 1264 168 1177 -13 1264 51 b 1101 316 1264 277 1175 320 l 1252 483 l 1245 548 l 889 548 l 889 472 l 1143 472 l 1001 304 l 1018 256 b 1064 263 1032 262 1048 263 b 1166 165 1116 263 1166 233 "},"4":{"x_min":86.59375,"x_max":763,"ha":807,"o":"m 488 409 l 488 104 l 214 104 l 496 814 l 364 783 l 86 83 l 103 7 l 488 7 l 488 -208 l 606 -208 l 606 7 l 763 7 l 763 104 l 606 104 l 606 458 l 488 409 "},"Ü":{"x_min":118.828125,"x_max":777,"ha":896,"o":"m 448 -21 b 776 308 638 -21 775 97 b 776 972 777 466 776 972 l 651 972 b 651 308 651 972 652 431 b 448 83 650 163 575 83 b 244 308 322 83 245 163 b 244 972 243 431 244 972 l 119 972 b 119 308 119 972 118 466 b 448 -21 120 97 258 -21 m 259 1115 b 336 1038 259 1070 293 1038 b 415 1115 381 1038 415 1070 b 336 1192 415 1159 381 1192 b 259 1115 293 1192 259 1159 m 509 1115 b 584 1038 509 1070 541 1038 b 665 1115 630 1038 665 1070 b 584 1192 665 1159 630 1192 b 509 1115 541 1192 509 1159 "},"à":{"x_min":72,"x_max":644.34375,"ha":682,"o":"m 644 83 b 554 159 584 83 554 90 l 554 455 b 330 694 554 616 470 694 b 94 470 195 694 78 609 l 198 479 b 323 597 198 551 244 597 b 436 448 409 597 436 543 l 436 381 b 210 326 438 383 297 351 b 72 172 106 295 72 265 b 262 -20 72 52 158 -20 b 447 83 354 -20 409 20 l 451 83 b 644 0 473 -40 615 -16 l 644 83 m 258 266 b 436 313 317 286 436 313 l 436 225 b 304 69 436 138 384 69 b 190 186 237 69 190 112 b 258 266 190 227 203 248 m 73 972 l 255 770 l 365 770 l 212 972 l 73 972 "},"ó":{"x_min":80.21875,"x_max":621.171875,"ha":701,"o":"m 618 229 b 618 447 622 327 622 361 b 351 694 611 594 506 694 b 83 447 194 694 90 594 b 83 229 79 361 79 336 b 351 -20 88 80 198 -20 b 618 229 504 -20 611 80 m 500 444 b 500 231 502 358 502 305 b 351 76 495 143 438 76 b 201 233 262 76 205 143 b 201 444 198 304 198 358 b 351 597 204 536 262 597 b 500 444 440 597 497 534 m 437 972 l 284 770 l 393 770 l 576 972 l 437 972 "},"₀":{"x_min":76.734375,"x_max":482.984375,"ha":560,"o":"m 481 48 b 481 225 483 118 483 168 b 280 423 479 345 395 423 b 77 225 163 423 79 345 b 77 48 76 168 76 118 b 277 -152 79 -73 161 -152 b 481 48 393 -152 479 -73 m 384 225 b 384 48 386 168 386 105 b 280 -76 381 -31 338 -76 b 175 48 222 -76 176 -31 b 175 225 173 105 173 168 b 280 347 176 301 216 347 b 384 225 344 347 381 301 "}}}
